<?xml version="1.0" encoding="utf-8" standalone="no"?>
<!DOCTYPE svg PUBLIC "-//W3C//DTD SVG 1.1//EN"
  "http://www.w3.org/Graphics/SVG/1.1/DTD/svg11.dtd">
<svg xmlns:xlink="http://www.w3.org/1999/xlink" width="2160pt" height="864pt" viewBox="0 0 2160 864" xmlns="http://www.w3.org/2000/svg" version="1.1">
 <metadata>
  <rdf:RDF xmlns:dc="http://purl.org/dc/elements/1.1/" xmlns:cc="http://creativecommons.org/ns#" xmlns:rdf="http://www.w3.org/1999/02/22-rdf-syntax-ns#">
   <cc:Work>
    <dc:type rdf:resource="http://purl.org/dc/dcmitype/StillImage"/>
    <dc:date>2025-12-01T15:47:58.401980</dc:date>
    <dc:format>image/svg+xml</dc:format>
    <dc:creator>
     <cc:Agent>
      <dc:title>Matplotlib v3.9.4, https://matplotlib.org/</dc:title>
     </cc:Agent>
    </dc:creator>
   </cc:Work>
  </rdf:RDF>
 </metadata>
 <defs>
  <style type="text/css">*{stroke-linejoin: round; stroke-linecap: butt}</style>
 </defs>
 <g id="figure_1">
  <g id="patch_1">
   <path d="M 0 864 
L 2160 864 
L 2160 0 
L 0 0 
z
" style="fill: #ffffff"/>
  </g>
  <g id="axes_1"/>
  <g id="axes_2">
   <g id="patch_2">
    <path d="M 578.5575 611.399412 
L 2149.2 611.399412 
L 2149.2 13.557649 
L 578.5575 13.557649 
z
" style="fill: #ffffff"/>
   </g>
   <g id="patch_3">
    <path d="M 599.975352 582.70642 
L 649.950341 582.70642 
L 649.950341 40.732275 
L 599.975352 40.732275 
z
" clip-path="url(#pecce7be144)" style="fill: #ff0000; stroke: #d3d3d3; stroke-linejoin: miter"/>
   </g>
   <g id="patch_4">
    <path d="M 742.761034 582.70642 
L 792.736023 582.70642 
L 792.736023 520.170942 
L 742.761034 520.170942 
z
" clip-path="url(#pecce7be144)" style="stroke: #d3d3d3; stroke-linejoin: miter"/>
   </g>
   <g id="patch_5">
    <path d="M 885.546716 582.70642 
L 935.521705 582.70642 
L 935.521705 520.170942 
L 885.546716 520.170942 
z
" clip-path="url(#pecce7be144)" style="stroke: #d3d3d3; stroke-linejoin: miter"/>
   </g>
   <g id="patch_6">
    <path d="M 1028.332398 582.70642 
L 1078.307386 582.70642 
L 1078.307386 541.016101 
L 1028.332398 541.016101 
z
" clip-path="url(#pecce7be144)" style="stroke: #d3d3d3; stroke-linejoin: miter"/>
   </g>
   <g id="patch_7">
    <path d="M 1171.11808 582.70642 
L 1221.093068 582.70642 
L 1221.093068 541.016101 
L 1171.11808 541.016101 
z
" clip-path="url(#pecce7be144)" style="stroke: #d3d3d3; stroke-linejoin: miter"/>
   </g>
   <g id="patch_8">
    <path d="M 1313.903761 582.70642 
L 1363.87875 582.70642 
L 1363.87875 561.86126 
L 1313.903761 561.86126 
z
" clip-path="url(#pecce7be144)" style="stroke: #d3d3d3; stroke-linejoin: miter"/>
   </g>
   <g id="patch_9">
    <path d="M 1456.689443 582.70642 
L 1506.664432 582.70642 
L 1506.664432 561.86126 
L 1456.689443 561.86126 
z
" clip-path="url(#pecce7be144)" style="stroke: #d3d3d3; stroke-linejoin: miter"/>
   </g>
   <g id="patch_10">
    <path d="M 1599.475125 582.70642 
L 1649.450114 582.70642 
L 1649.450114 561.86126 
L 1599.475125 561.86126 
z
" clip-path="url(#pecce7be144)" style="stroke: #d3d3d3; stroke-linejoin: miter"/>
   </g>
   <g id="patch_11">
    <path d="M 1742.260807 582.70642 
L 1792.235795 582.70642 
L 1792.235795 561.86126 
L 1742.260807 561.86126 
z
" clip-path="url(#pecce7be144)" style="stroke: #d3d3d3; stroke-linejoin: miter"/>
   </g>
   <g id="patch_12">
    <path d="M 1885.046489 582.70642 
L 1935.021477 582.70642 
L 1935.021477 561.86126 
L 1885.046489 561.86126 
z
" clip-path="url(#pecce7be144)" style="stroke: #d3d3d3; stroke-linejoin: miter"/>
   </g>
   <g id="patch_13">
    <path d="M 2027.83217 582.70642 
L 2077.807159 582.70642 
L 2077.807159 561.86126 
L 2027.83217 561.86126 
z
" clip-path="url(#pecce7be144)" style="stroke: #d3d3d3; stroke-linejoin: miter"/>
   </g>
   <g id="patch_14">
    <path d="M 662.444088 582.70642 
L 687.431582 582.70642 
L 687.431582 541.016101 
L 662.444088 541.016101 
z
" clip-path="url(#pecce7be144)" style="fill: #808080; opacity: 0.5"/>
   </g>
   <g id="patch_15">
    <path d="M 805.22977 582.70642 
L 830.217264 582.70642 
L 830.217264 541.016101 
L 805.22977 541.016101 
z
" clip-path="url(#pecce7be144)" style="fill: #808080; opacity: 0.5"/>
   </g>
   <g id="patch_16">
    <path d="M 948.015452 582.70642 
L 973.002946 582.70642 
L 973.002946 541.016101 
L 948.015452 541.016101 
z
" clip-path="url(#pecce7be144)" style="fill: #808080; opacity: 0.5"/>
   </g>
   <g id="patch_17">
    <path d="M 1090.801134 582.70642 
L 1115.788628 582.70642 
L 1115.788628 541.016101 
L 1090.801134 541.016101 
z
" clip-path="url(#pecce7be144)" style="fill: #808080; opacity: 0.5"/>
   </g>
   <g id="patch_18">
    <path d="M 1233.586815 582.70642 
L 1258.57431 582.70642 
L 1258.57431 541.016101 
L 1233.586815 541.016101 
z
" clip-path="url(#pecce7be144)" style="fill: #808080; opacity: 0.5"/>
   </g>
   <g id="patch_19">
    <path d="M 1376.372497 582.70642 
L 1401.359991 582.70642 
L 1401.359991 541.016101 
L 1376.372497 541.016101 
z
" clip-path="url(#pecce7be144)" style="fill: #808080; opacity: 0.5"/>
   </g>
   <g id="patch_20">
    <path d="M 1519.158179 582.70642 
L 1544.145673 582.70642 
L 1544.145673 541.016101 
L 1519.158179 541.016101 
z
" clip-path="url(#pecce7be144)" style="fill: #808080; opacity: 0.5"/>
   </g>
   <g id="patch_21">
    <path d="M 1661.943861 582.70642 
L 1686.931355 582.70642 
L 1686.931355 541.016101 
L 1661.943861 541.016101 
z
" clip-path="url(#pecce7be144)" style="fill: #808080; opacity: 0.5"/>
   </g>
   <g id="patch_22">
    <path d="M 1804.729543 582.70642 
L 1829.717037 582.70642 
L 1829.717037 561.86126 
L 1804.729543 561.86126 
z
" clip-path="url(#pecce7be144)" style="fill: #808080; opacity: 0.5"/>
   </g>
   <g id="patch_23">
    <path d="M 1947.515224 582.70642 
L 1972.502719 582.70642 
L 1972.502719 561.86126 
L 1947.515224 561.86126 
z
" clip-path="url(#pecce7be144)" style="fill: #808080; opacity: 0.5"/>
   </g>
   <g id="patch_24">
    <path d="M 2090.300906 582.70642 
L 2115.288401 582.70642 
L 2115.288401 561.86126 
L 2090.300906 561.86126 
z
" clip-path="url(#pecce7be144)" style="fill: #808080; opacity: 0.5"/>
   </g>
   <g id="matplotlib.axis_1">
    <g id="ytick_1">
     <g id="line2d_1">
      <defs>
       <path id="mf18232d231" d="M 0 0 
L -3.5 0 
" style="stroke: #000000; stroke-width: 0.8"/>
      </defs>
      <g>
       <use xlink:href="#mf18232d231" x="578.5575" y="582.70642" style="stroke: #000000; stroke-width: 0.8"/>
      </g>
     </g>
     <g id="text_1">
      <!-- 0 -->
      <g transform="translate(565.195 586.505639) scale(0.1 -0.1)">
       <defs>
        <path id="DejaVuSerif-30" d="M 2034 219 
Q 2513 219 2750 744 
Q 2988 1269 2988 2328 
Q 2988 3391 2750 3916 
Q 2513 4441 2034 4441 
Q 1556 4441 1318 3916 
Q 1081 3391 1081 2328 
Q 1081 1269 1318 744 
Q 1556 219 2034 219 
z
M 2034 -91 
Q 1275 -91 848 546 
Q 422 1184 422 2328 
Q 422 3475 848 4112 
Q 1275 4750 2034 4750 
Q 2797 4750 3222 4112 
Q 3647 3475 3647 2328 
Q 3647 1184 3222 546 
Q 2797 -91 2034 -91 
z
" transform="scale(0.015625)"/>
       </defs>
       <use xlink:href="#DejaVuSerif-30"/>
      </g>
     </g>
    </g>
    <g id="ytick_2">
     <g id="line2d_2">
      <g>
       <use xlink:href="#mf18232d231" x="578.5575" y="478.480623" style="stroke: #000000; stroke-width: 0.8"/>
      </g>
     </g>
     <g id="text_2">
      <!-- 5 -->
      <g transform="translate(565.195 482.279841) scale(0.1 -0.1)">
       <defs>
        <path id="DejaVuSerif-35" d="M 3219 4666 
L 3219 4153 
L 1081 4153 
L 1081 2816 
Q 1244 2928 1461 2984 
Q 1678 3041 1947 3041 
Q 2703 3041 3140 2622 
Q 3578 2203 3578 1478 
Q 3578 738 3136 323 
Q 2694 -91 1894 -91 
Q 1572 -91 1234 -12 
Q 897 66 544 225 
L 544 1131 
L 897 1131 
Q 925 688 1179 453 
Q 1434 219 1894 219 
Q 2388 219 2653 544 
Q 2919 869 2919 1478 
Q 2919 2084 2655 2407 
Q 2391 2731 1894 2731 
Q 1613 2731 1398 2631 
Q 1184 2531 1019 2322 
L 750 2322 
L 750 4666 
L 3219 4666 
z
" transform="scale(0.015625)"/>
       </defs>
       <use xlink:href="#DejaVuSerif-35"/>
      </g>
     </g>
    </g>
    <g id="ytick_3">
     <g id="line2d_3">
      <g>
       <use xlink:href="#mf18232d231" x="578.5575" y="374.254826" style="stroke: #000000; stroke-width: 0.8"/>
      </g>
     </g>
     <g id="text_3">
      <!-- 10 -->
      <g transform="translate(558.8325 378.054044) scale(0.1 -0.1)">
       <defs>
        <path id="DejaVuSerif-31" d="M 909 0 
L 909 331 
L 1722 331 
L 1722 4213 
L 781 3603 
L 781 4013 
L 1919 4750 
L 2350 4750 
L 2350 331 
L 3163 331 
L 3163 0 
L 909 0 
z
" transform="scale(0.015625)"/>
       </defs>
       <use xlink:href="#DejaVuSerif-31"/>
       <use xlink:href="#DejaVuSerif-30" x="63.623047"/>
      </g>
     </g>
    </g>
    <g id="ytick_4">
     <g id="line2d_4">
      <g>
       <use xlink:href="#mf18232d231" x="578.5575" y="270.029028" style="stroke: #000000; stroke-width: 0.8"/>
      </g>
     </g>
     <g id="text_4">
      <!-- 15 -->
      <g transform="translate(558.8325 273.828247) scale(0.1 -0.1)">
       <use xlink:href="#DejaVuSerif-31"/>
       <use xlink:href="#DejaVuSerif-35" x="63.623047"/>
      </g>
     </g>
    </g>
    <g id="ytick_5">
     <g id="line2d_5">
      <g>
       <use xlink:href="#mf18232d231" x="578.5575" y="165.803231" style="stroke: #000000; stroke-width: 0.8"/>
      </g>
     </g>
     <g id="text_5">
      <!-- 20 -->
      <g transform="translate(558.8325 169.60245) scale(0.1 -0.1)">
       <defs>
        <path id="DejaVuSerif-32" d="M 819 3553 
L 469 3553 
L 469 4384 
Q 803 4563 1142 4656 
Q 1481 4750 1806 4750 
Q 2534 4750 2956 4397 
Q 3378 4044 3378 3438 
Q 3378 2753 2422 1800 
Q 2347 1728 2309 1691 
L 1131 513 
L 3078 513 
L 3078 1088 
L 3444 1088 
L 3444 0 
L 434 0 
L 434 341 
L 1850 1753 
Q 2319 2222 2519 2614 
Q 2719 3006 2719 3438 
Q 2719 3909 2473 4175 
Q 2228 4441 1797 4441 
Q 1350 4441 1106 4219 
Q 863 3997 819 3553 
z
" transform="scale(0.015625)"/>
       </defs>
       <use xlink:href="#DejaVuSerif-32"/>
       <use xlink:href="#DejaVuSerif-30" x="63.623047"/>
      </g>
     </g>
    </g>
    <g id="ytick_6">
     <g id="line2d_6">
      <g>
       <use xlink:href="#mf18232d231" x="578.5575" y="61.577434" style="stroke: #000000; stroke-width: 0.8"/>
      </g>
     </g>
     <g id="text_6">
      <!-- 25 -->
      <g transform="translate(558.8325 65.376653) scale(0.1 -0.1)">
       <use xlink:href="#DejaVuSerif-32"/>
       <use xlink:href="#DejaVuSerif-35" x="63.623047"/>
      </g>
     </g>
    </g>
    <g id="text_7">
     <!-- Counts -->
     <g transform="translate(552.752813 330.330093) rotate(-90) scale(0.1 -0.1)">
      <defs>
       <path id="DejaVuSerif-43" d="M 4513 1234 
Q 4306 581 3820 245 
Q 3334 -91 2591 -91 
Q 2134 -91 1743 65 
Q 1353 222 1050 525 
Q 700 875 529 1320 
Q 359 1766 359 2328 
Q 359 3416 987 4083 
Q 1616 4750 2644 4750 
Q 3025 4750 3456 4650 
Q 3888 4550 4384 4347 
L 4384 3272 
L 4031 3272 
Q 3916 3859 3567 4137 
Q 3219 4416 2591 4416 
Q 1844 4416 1459 3886 
Q 1075 3356 1075 2328 
Q 1075 1303 1459 773 
Q 1844 244 2591 244 
Q 3113 244 3450 492 
Q 3788 741 3938 1234 
L 4513 1234 
z
" transform="scale(0.015625)"/>
       <path id="DejaVuSerif-6f" d="M 1925 219 
Q 2388 219 2623 584 
Q 2859 950 2859 1663 
Q 2859 2375 2623 2739 
Q 2388 3103 1925 3103 
Q 1463 3103 1227 2739 
Q 991 2375 991 1663 
Q 991 950 1228 584 
Q 1466 219 1925 219 
z
M 1925 -91 
Q 1200 -91 759 389 
Q 319 869 319 1663 
Q 319 2456 758 2934 
Q 1197 3413 1925 3413 
Q 2653 3413 3092 2934 
Q 3531 2456 3531 1663 
Q 3531 869 3092 389 
Q 2653 -91 1925 -91 
z
" transform="scale(0.015625)"/>
       <path id="DejaVuSerif-75" d="M 2266 3322 
L 3341 3322 
L 3341 331 
L 3884 331 
L 3884 0 
L 2766 0 
L 2766 588 
Q 2606 256 2353 82 
Q 2100 -91 1766 -91 
Q 1213 -91 952 223 
Q 691 538 691 1209 
L 691 2988 
L 172 2988 
L 172 3322 
L 1269 3322 
L 1269 1388 
Q 1269 781 1417 556 
Q 1566 331 1947 331 
Q 2347 331 2556 625 
Q 2766 919 2766 1478 
L 2766 2988 
L 2266 2988 
L 2266 3322 
z
" transform="scale(0.015625)"/>
       <path id="DejaVuSerif-6e" d="M 263 0 
L 263 331 
L 781 331 
L 781 2988 
L 231 2988 
L 231 3322 
L 1356 3322 
L 1356 2731 
Q 1516 3069 1770 3241 
Q 2025 3413 2363 3413 
Q 2913 3413 3172 3097 
Q 3431 2781 3431 2113 
L 3431 331 
L 3944 331 
L 3944 0 
L 2356 0 
L 2356 331 
L 2853 331 
L 2853 1931 
Q 2853 2541 2703 2767 
Q 2553 2994 2175 2994 
Q 1775 2994 1565 2701 
Q 1356 2409 1356 1850 
L 1356 331 
L 1856 331 
L 1856 0 
L 263 0 
z
" transform="scale(0.015625)"/>
       <path id="DejaVuSerif-74" d="M 691 2988 
L 184 2988 
L 184 3322 
L 691 3322 
L 691 4353 
L 1269 4353 
L 1269 3322 
L 2350 3322 
L 2350 2988 
L 1269 2988 
L 1269 878 
Q 1269 456 1350 337 
Q 1431 219 1650 219 
Q 1875 219 1978 351 
Q 2081 484 2088 781 
L 2522 781 
Q 2497 328 2275 118 
Q 2053 -91 1600 -91 
Q 1103 -91 897 129 
Q 691 350 691 878 
L 691 2988 
z
" transform="scale(0.015625)"/>
       <path id="DejaVuSerif-73" d="M 359 184 
L 359 959 
L 691 959 
Q 703 588 923 403 
Q 1144 219 1575 219 
Q 1963 219 2166 364 
Q 2369 509 2369 788 
Q 2369 1006 2220 1140 
Q 2072 1275 1594 1428 
L 1178 1569 
Q 750 1706 558 1912 
Q 366 2119 366 2438 
Q 366 2894 700 3153 
Q 1034 3413 1625 3413 
Q 1888 3413 2178 3344 
Q 2469 3275 2778 3144 
L 2778 2419 
L 2447 2419 
Q 2434 2741 2221 2922 
Q 2009 3103 1644 3103 
Q 1281 3103 1095 2975 
Q 909 2847 909 2591 
Q 909 2381 1050 2254 
Q 1191 2128 1613 1997 
L 2069 1856 
Q 2541 1709 2748 1489 
Q 2956 1269 2956 922 
Q 2956 450 2595 179 
Q 2234 -91 1600 -91 
Q 1278 -91 972 -22 
Q 666 47 359 184 
z
" transform="scale(0.015625)"/>
      </defs>
      <use xlink:href="#DejaVuSerif-43"/>
      <use xlink:href="#DejaVuSerif-6f" x="76.513672"/>
      <use xlink:href="#DejaVuSerif-75" x="136.71875"/>
      <use xlink:href="#DejaVuSerif-6e" x="201.123047"/>
      <use xlink:href="#DejaVuSerif-74" x="265.527344"/>
      <use xlink:href="#DejaVuSerif-73" x="305.712891"/>
     </g>
    </g>
   </g>
   <g id="LineCollection_1">
    <path d="M 674.937835 576.420188 
L 674.937835 505.612014 
" clip-path="url(#pecce7be144)" style="fill: none; stroke: #d3d3d3; stroke-width: 1.5"/>
    <path d="M 817.723517 576.420188 
L 817.723517 505.612014 
" clip-path="url(#pecce7be144)" style="fill: none; stroke: #d3d3d3; stroke-width: 1.5"/>
    <path d="M 960.509199 576.420188 
L 960.509199 505.612014 
" clip-path="url(#pecce7be144)" style="fill: none; stroke: #d3d3d3; stroke-width: 1.5"/>
    <path d="M 1103.294881 576.420188 
L 1103.294881 505.612014 
" clip-path="url(#pecce7be144)" style="fill: none; stroke: #d3d3d3; stroke-width: 1.5"/>
    <path d="M 1246.080562 576.420188 
L 1246.080562 505.612014 
" clip-path="url(#pecce7be144)" style="fill: none; stroke: #d3d3d3; stroke-width: 1.5"/>
    <path d="M 1388.866244 576.420188 
L 1388.866244 505.612014 
" clip-path="url(#pecce7be144)" style="fill: none; stroke: #d3d3d3; stroke-width: 1.5"/>
    <path d="M 1531.651926 576.420188 
L 1531.651926 505.612014 
" clip-path="url(#pecce7be144)" style="fill: none; stroke: #d3d3d3; stroke-width: 1.5"/>
    <path d="M 1674.437608 576.420188 
L 1674.437608 505.612014 
" clip-path="url(#pecce7be144)" style="fill: none; stroke: #d3d3d3; stroke-width: 1.5"/>
    <path d="M 1817.22329 584.224787 
L 1817.22329 539.497734 
" clip-path="url(#pecce7be144)" style="fill: none; stroke: #d3d3d3; stroke-width: 1.5"/>
    <path d="M 1960.008972 584.224787 
L 1960.008972 539.497734 
" clip-path="url(#pecce7be144)" style="fill: none; stroke: #d3d3d3; stroke-width: 1.5"/>
    <path d="M 2102.794653 584.224787 
L 2102.794653 539.497734 
" clip-path="url(#pecce7be144)" style="fill: none; stroke: #d3d3d3; stroke-width: 1.5"/>
   </g>
   <g id="patch_25">
    <path d="M 578.5575 611.399412 
L 578.5575 13.557649 
" style="fill: none; stroke: #000000; stroke-width: 0.8; stroke-linejoin: miter; stroke-linecap: square"/>
   </g>
   <g id="text_8">
    <!-- * -->
    <g transform="translate(612.469099 19.887115) scale(0.1 -0.1)">
     <defs>
      <path id="DejaVuSerif-2a" d="M 3097 3866 
L 1875 3297 
L 3097 2719 
L 2859 2350 
L 1772 3028 
L 1813 1838 
L 1388 1838 
L 1428 3028 
L 341 2350 
L 103 2719 
L 1325 3291 
L 103 3866 
L 341 4238 
L 1428 3559 
L 1388 4750 
L 1813 4750 
L 1772 3559 
L 2859 4238 
L 3097 3866 
z
" transform="scale(0.015625)"/>
     </defs>
     <use xlink:href="#DejaVuSerif-2a"/>
    </g>
   </g>
  </g>
  <g id="axes_3">
   <g id="patch_26">
    <path d="M 534.3475 827.421791 
L 10.8 827.421791 
L 10.8 807.292439 
L 534.3475 807.292439 
z
" clip-path="url(#pce7f0ae79c)" style="stroke: #000000; stroke-linejoin: miter"/>
   </g>
   <g id="patch_27">
    <path d="M 534.3475 787.163087 
L 10.8 787.163087 
L 10.8 767.033735 
L 534.3475 767.033735 
z
" clip-path="url(#pce7f0ae79c)" style="stroke: #000000; stroke-linejoin: miter"/>
   </g>
   <g id="patch_28">
    <path d="M 534.3475 746.904382 
L 391.561818 746.904382 
L 391.561818 726.77503 
L 534.3475 726.77503 
z
" clip-path="url(#pce7f0ae79c)" style="stroke: #000000; stroke-linejoin: miter"/>
   </g>
   <g id="patch_29">
    <path d="M 534.3475 706.645678 
L 407.426894 706.645678 
L 407.426894 686.516325 
L 534.3475 686.516325 
z
" clip-path="url(#pce7f0ae79c)" style="stroke: #000000; stroke-linejoin: miter"/>
   </g>
   <g id="patch_30">
    <path d="M 534.3475 666.386973 
L 470.887197 666.386973 
L 470.887197 646.257621 
L 534.3475 646.257621 
z
" clip-path="url(#pce7f0ae79c)" style="stroke: #000000; stroke-linejoin: miter"/>
   </g>
   <g id="matplotlib.axis_2">
    <g id="xtick_1">
     <g id="line2d_7">
      <path d="M 534.3475 836.48 
L 534.3475 637.199412 
" clip-path="url(#pce7f0ae79c)" style="fill: none; stroke: #b0b0b0; stroke-width: 0.8; stroke-linecap: square"/>
     </g>
     <g id="line2d_8">
      <defs>
       <path id="mb263d17c42" d="M 0 0 
L 0 3.5 
" style="stroke: #000000; stroke-width: 0.8"/>
      </defs>
      <g>
       <use xlink:href="#mb263d17c42" x="534.3475" y="836.48" style="stroke: #000000; stroke-width: 0.8"/>
      </g>
     </g>
     <g id="text_9">
      <!-- 0 -->
      <g transform="translate(531.16625 851.078437) scale(0.1 -0.1)">
       <use xlink:href="#DejaVuSerif-30"/>
      </g>
     </g>
    </g>
    <g id="xtick_2">
     <g id="line2d_9">
      <path d="M 455.022121 836.48 
L 455.022121 637.199412 
" clip-path="url(#pce7f0ae79c)" style="fill: none; stroke: #b0b0b0; stroke-width: 0.8; stroke-linecap: square"/>
     </g>
     <g id="line2d_10">
      <g>
       <use xlink:href="#mb263d17c42" x="455.022121" y="836.48" style="stroke: #000000; stroke-width: 0.8"/>
      </g>
     </g>
     <g id="text_10">
      <!-- 5 -->
      <g transform="translate(451.840871 851.078437) scale(0.1 -0.1)">
       <use xlink:href="#DejaVuSerif-35"/>
      </g>
     </g>
    </g>
    <g id="xtick_3">
     <g id="line2d_11">
      <path d="M 375.696742 836.48 
L 375.696742 637.199412 
" clip-path="url(#pce7f0ae79c)" style="fill: none; stroke: #b0b0b0; stroke-width: 0.8; stroke-linecap: square"/>
     </g>
     <g id="line2d_12">
      <g>
       <use xlink:href="#mb263d17c42" x="375.696742" y="836.48" style="stroke: #000000; stroke-width: 0.8"/>
      </g>
     </g>
     <g id="text_11">
      <!-- 10 -->
      <g transform="translate(369.334242 851.078437) scale(0.1 -0.1)">
       <use xlink:href="#DejaVuSerif-31"/>
       <use xlink:href="#DejaVuSerif-30" x="63.623047"/>
      </g>
     </g>
    </g>
    <g id="xtick_4">
     <g id="line2d_13">
      <path d="M 296.371364 836.48 
L 296.371364 637.199412 
" clip-path="url(#pce7f0ae79c)" style="fill: none; stroke: #b0b0b0; stroke-width: 0.8; stroke-linecap: square"/>
     </g>
     <g id="line2d_14">
      <g>
       <use xlink:href="#mb263d17c42" x="296.371364" y="836.48" style="stroke: #000000; stroke-width: 0.8"/>
      </g>
     </g>
     <g id="text_12">
      <!-- 15 -->
      <g transform="translate(290.008864 851.078437) scale(0.1 -0.1)">
       <use xlink:href="#DejaVuSerif-31"/>
       <use xlink:href="#DejaVuSerif-35" x="63.623047"/>
      </g>
     </g>
    </g>
    <g id="xtick_5">
     <g id="line2d_15">
      <path d="M 217.045985 836.48 
L 217.045985 637.199412 
" clip-path="url(#pce7f0ae79c)" style="fill: none; stroke: #b0b0b0; stroke-width: 0.8; stroke-linecap: square"/>
     </g>
     <g id="line2d_16">
      <g>
       <use xlink:href="#mb263d17c42" x="217.045985" y="836.48" style="stroke: #000000; stroke-width: 0.8"/>
      </g>
     </g>
     <g id="text_13">
      <!-- 20 -->
      <g transform="translate(210.683485 851.078437) scale(0.1 -0.1)">
       <use xlink:href="#DejaVuSerif-32"/>
       <use xlink:href="#DejaVuSerif-30" x="63.623047"/>
      </g>
     </g>
    </g>
    <g id="xtick_6">
     <g id="line2d_17">
      <path d="M 137.720606 836.48 
L 137.720606 637.199412 
" clip-path="url(#pce7f0ae79c)" style="fill: none; stroke: #b0b0b0; stroke-width: 0.8; stroke-linecap: square"/>
     </g>
     <g id="line2d_18">
      <g>
       <use xlink:href="#mb263d17c42" x="137.720606" y="836.48" style="stroke: #000000; stroke-width: 0.8"/>
      </g>
     </g>
     <g id="text_14">
      <!-- 25 -->
      <g transform="translate(131.358106 851.078437) scale(0.1 -0.1)">
       <use xlink:href="#DejaVuSerif-32"/>
       <use xlink:href="#DejaVuSerif-35" x="63.623047"/>
      </g>
     </g>
    </g>
    <g id="xtick_7">
     <g id="line2d_19">
      <path d="M 58.395227 836.48 
L 58.395227 637.199412 
" clip-path="url(#pce7f0ae79c)" style="fill: none; stroke: #b0b0b0; stroke-width: 0.8; stroke-linecap: square"/>
     </g>
     <g id="line2d_20">
      <g>
       <use xlink:href="#mb263d17c42" x="58.395227" y="836.48" style="stroke: #000000; stroke-width: 0.8"/>
      </g>
     </g>
     <g id="text_15">
      <!-- 30 -->
      <g transform="translate(52.032727 851.078437) scale(0.1 -0.1)">
       <defs>
        <path id="DejaVuSerif-33" d="M 622 4469 
Q 988 4606 1323 4678 
Q 1659 4750 1953 4750 
Q 2638 4750 3022 4454 
Q 3406 4159 3406 3634 
Q 3406 3213 3140 2930 
Q 2875 2647 2388 2547 
Q 2963 2466 3280 2130 
Q 3597 1794 3597 1259 
Q 3597 606 3158 257 
Q 2719 -91 1894 -91 
Q 1528 -91 1179 -12 
Q 831 66 488 225 
L 488 1131 
L 838 1131 
Q 869 681 1141 450 
Q 1413 219 1906 219 
Q 2384 219 2661 495 
Q 2938 772 2938 1253 
Q 2938 1803 2653 2086 
Q 2369 2369 1819 2369 
L 1522 2369 
L 1522 2688 
L 1678 2688 
Q 2225 2688 2498 2914 
Q 2772 3141 2772 3597 
Q 2772 4006 2547 4223 
Q 2322 4441 1900 4441 
Q 1478 4441 1245 4241 
Q 1013 4041 972 3647 
L 622 3647 
L 622 4469 
z
" transform="scale(0.015625)"/>
       </defs>
       <use xlink:href="#DejaVuSerif-33"/>
       <use xlink:href="#DejaVuSerif-30" x="63.623047"/>
      </g>
     </g>
    </g>
   </g>
   <g id="patch_31">
    <path d="M 10.8 836.48 
L 534.3475 836.48 
" style="fill: none; stroke: #000000; stroke-width: 0.8; stroke-linejoin: miter; stroke-linecap: square"/>
   </g>
   <g id="text_16">
    <!-- Totals -->
    <g transform="translate(254.437813 631.199412) scale(0.12 -0.12)">
     <defs>
      <path id="DejaVuSerif-54" d="M 1222 0 
L 1222 331 
L 1819 331 
L 1819 4294 
L 447 4294 
L 447 3566 
L 63 3566 
L 63 4666 
L 4206 4666 
L 4206 3566 
L 3822 3566 
L 3822 4294 
L 2450 4294 
L 2450 331 
L 3047 331 
L 3047 0 
L 1222 0 
z
" transform="scale(0.015625)"/>
      <path id="DejaVuSerif-61" d="M 2547 1044 
L 2547 1747 
L 1806 1747 
Q 1378 1747 1168 1562 
Q 959 1378 959 997 
Q 959 650 1171 447 
Q 1384 244 1747 244 
Q 2106 244 2326 466 
Q 2547 688 2547 1044 
z
M 3122 2075 
L 3122 331 
L 3634 331 
L 3634 0 
L 2547 0 
L 2547 359 
Q 2356 128 2106 18 
Q 1856 -91 1522 -91 
Q 969 -91 644 203 
Q 319 497 319 997 
Q 319 1513 691 1797 
Q 1063 2081 1741 2081 
L 2547 2081 
L 2547 2309 
Q 2547 2688 2317 2895 
Q 2088 3103 1672 3103 
Q 1328 3103 1125 2947 
Q 922 2791 872 2484 
L 575 2484 
L 575 3156 
Q 875 3284 1158 3348 
Q 1441 3413 1709 3413 
Q 2400 3413 2761 3070 
Q 3122 2728 3122 2075 
z
" transform="scale(0.015625)"/>
      <path id="DejaVuSerif-6c" d="M 1313 331 
L 1856 331 
L 1856 0 
L 184 0 
L 184 331 
L 738 331 
L 738 4531 
L 184 4531 
L 184 4863 
L 1313 4863 
L 1313 331 
z
" transform="scale(0.015625)"/>
     </defs>
     <use xlink:href="#DejaVuSerif-54"/>
     <use xlink:href="#DejaVuSerif-6f" x="58.949219"/>
     <use xlink:href="#DejaVuSerif-74" x="119.154297"/>
     <use xlink:href="#DejaVuSerif-61" x="159.339844"/>
     <use xlink:href="#DejaVuSerif-6c" x="218.958984"/>
     <use xlink:href="#DejaVuSerif-73" x="250.941406"/>
    </g>
   </g>
  </g>
  <g id="axes_4">
   <g id="matplotlib.axis_3">
    <g id="ytick_7">
     <g id="line2d_21"/>
     <g id="text_17">
      <!-- al -->
      <g transform="translate(565.896563 831.22101) scale(0.1 -0.1)">
       <use xlink:href="#DejaVuSerif-61"/>
       <use xlink:href="#DejaVuSerif-6c" x="59.619141"/>
      </g>
     </g>
    </g>
    <g id="ytick_8">
     <g id="line2d_22"/>
     <g id="text_18">
      <!-- lm -->
      <g transform="translate(562.37625 785.929968) scale(0.1 -0.1)">
       <defs>
        <path id="DejaVuSerif-6d" d="M 3316 2675 
Q 3481 3041 3739 3227 
Q 3997 3413 4341 3413 
Q 4863 3413 5119 3089 
Q 5375 2766 5375 2113 
L 5375 331 
L 5894 331 
L 5894 0 
L 4300 0 
L 4300 331 
L 4800 331 
L 4800 2047 
Q 4800 2556 4650 2772 
Q 4500 2988 4153 2988 
Q 3769 2988 3567 2697 
Q 3366 2406 3366 1850 
L 3366 331 
L 3866 331 
L 3866 0 
L 2291 0 
L 2291 331 
L 2791 331 
L 2791 2069 
Q 2791 2566 2641 2777 
Q 2491 2988 2144 2988 
Q 1759 2988 1557 2697 
Q 1356 2406 1356 1850 
L 1356 331 
L 1856 331 
L 1856 0 
L 263 0 
L 263 331 
L 781 331 
L 781 2994 
L 231 2994 
L 231 3322 
L 1356 3322 
L 1356 2731 
Q 1516 3063 1762 3238 
Q 2009 3413 2322 3413 
Q 2709 3413 2968 3220 
Q 3228 3028 3316 2675 
z
" transform="scale(0.015625)"/>
       </defs>
       <use xlink:href="#DejaVuSerif-6c"/>
       <use xlink:href="#DejaVuSerif-6d" x="31.982422"/>
      </g>
     </g>
    </g>
    <g id="ytick_9">
     <g id="line2d_23"/>
     <g id="text_19">
      <!-- am -->
      <g transform="translate(559.612188 740.638925) scale(0.1 -0.1)">
       <use xlink:href="#DejaVuSerif-61"/>
       <use xlink:href="#DejaVuSerif-6d" x="59.619141"/>
      </g>
     </g>
    </g>
    <g id="ytick_10">
     <g id="line2d_24"/>
     <g id="text_20">
      <!-- rsp -->
      <g transform="translate(558.745 695.347882) scale(0.1 -0.1)">
       <defs>
        <path id="DejaVuSerif-72" d="M 3059 3328 
L 3059 2497 
L 2728 2497 
Q 2713 2744 2591 2866 
Q 2469 2988 2234 2988 
Q 1809 2988 1582 2694 
Q 1356 2400 1356 1850 
L 1356 331 
L 2022 331 
L 2022 0 
L 263 0 
L 263 331 
L 781 331 
L 781 2994 
L 231 2994 
L 231 3322 
L 1356 3322 
L 1356 2731 
Q 1525 3078 1790 3245 
Q 2056 3413 2438 3413 
Q 2578 3413 2733 3391 
Q 2888 3369 3059 3328 
z
" transform="scale(0.015625)"/>
        <path id="DejaVuSerif-70" d="M 1313 1825 
L 1313 1497 
Q 1313 897 1542 583 
Q 1772 269 2209 269 
Q 2650 269 2876 622 
Q 3103 975 3103 1663 
Q 3103 2353 2876 2703 
Q 2650 3053 2209 3053 
Q 1772 3053 1542 2737 
Q 1313 2422 1313 1825 
z
M 738 2988 
L 184 2988 
L 184 3322 
L 1313 3322 
L 1313 2803 
Q 1481 3116 1742 3264 
Q 2003 3413 2388 3413 
Q 3000 3413 3387 2928 
Q 3775 2444 3775 1663 
Q 3775 881 3387 395 
Q 3000 -91 2388 -91 
Q 2003 -91 1742 57 
Q 1481 206 1313 519 
L 1313 -997 
L 1856 -997 
L 1856 -1331 
L 184 -1331 
L 184 -997 
L 738 -997 
L 738 2988 
z
" transform="scale(0.015625)"/>
       </defs>
       <use xlink:href="#DejaVuSerif-72"/>
       <use xlink:href="#DejaVuSerif-73" x="47.802734"/>
       <use xlink:href="#DejaVuSerif-70" x="99.121094"/>
      </g>
     </g>
    </g>
    <g id="ytick_11">
     <g id="line2d_25"/>
     <g id="text_21">
      <!-- pm -->
      <g transform="translate(559.173125 650.05684) scale(0.1 -0.1)">
       <use xlink:href="#DejaVuSerif-70"/>
       <use xlink:href="#DejaVuSerif-6d" x="64.013672"/>
      </g>
     </g>
    </g>
   </g>
   <g id="LineCollection_2">
    <path d="M 649.950341 827.421791 
L 649.950341 782.130749 
" clip-path="url(#p37e46961da)" style="fill: none; stroke: #000000; stroke-width: 2"/>
    <path d="M 792.736023 782.130749 
L 792.736023 691.548663 
" clip-path="url(#p37e46961da)" style="fill: none; stroke: #000000; stroke-width: 2"/>
    <path d="M 935.521705 827.421791 
L 935.521705 736.839706 
" clip-path="url(#p37e46961da)" style="fill: none; stroke: #000000; stroke-width: 2"/>
    <path d="M 1078.307386 736.839706 
L 1078.307386 691.548663 
" clip-path="url(#p37e46961da)" style="fill: none; stroke: #000000; stroke-width: 2"/>
    <path d="M 1221.093068 782.130749 
L 1221.093068 736.839706 
" clip-path="url(#p37e46961da)" style="fill: none; stroke: #000000; stroke-width: 2"/>
    <path d="M 1363.87875 827.421791 
L 1363.87875 691.548663 
" clip-path="url(#p37e46961da)" style="fill: none; stroke: #000000; stroke-width: 2"/>
    <path d="M 1506.664432 736.839706 
L 1506.664432 646.257621 
" clip-path="url(#p37e46961da)" style="fill: none; stroke: #000000; stroke-width: 2"/>
    <path d="M 1649.450114 782.130749 
L 1649.450114 646.257621 
" clip-path="url(#p37e46961da)" style="fill: none; stroke: #000000; stroke-width: 2"/>
    <path d="M 1792.235795 827.421791 
L 1792.235795 646.257621 
" clip-path="url(#p37e46961da)" style="fill: none; stroke: #000000; stroke-width: 2"/>
    <path d="M 1935.021477 827.421791 
L 1935.021477 691.548663 
" clip-path="url(#p37e46961da)" style="fill: none; stroke: #000000; stroke-width: 2"/>
    <path d="M 2077.807159 827.421791 
L 2077.807159 646.257621 
" clip-path="url(#p37e46961da)" style="fill: none; stroke: #000000; stroke-width: 2"/>
   </g>
   <g id="PathCollection_1">
    <defs>
     <path id="C0_0_d661e98b01" d="M 0 5.6 
C 1.485137 5.6 2.909647 5.009949 3.959798 3.959798 
C 5.009949 2.909647 5.6 1.485137 5.6 -0 
C 5.6 -1.485137 5.009949 -2.909647 3.959798 -3.959798 
C 2.909647 -5.009949 1.485137 -5.6 0 -5.6 
C -1.485137 -5.6 -2.909647 -5.009949 -3.959798 -3.959798 
C -5.009949 -2.909647 -5.6 -1.485137 -5.6 0 
C -5.6 1.485137 -5.009949 2.909647 -3.959798 3.959798 
C -2.909647 5.009949 -1.485137 5.6 0 5.6 
z
"/>
    </defs>
    <g clip-path="url(#p37e46961da)">
     <use xlink:href="#C0_0_d661e98b01" x="649.950341" y="827.421791" style="stroke: #000000"/>
    </g>
    <g clip-path="url(#p37e46961da)">
     <use xlink:href="#C0_0_d661e98b01" x="649.950341" y="782.130749" style="stroke: #000000"/>
    </g>
    <g clip-path="url(#p37e46961da)">
     <use xlink:href="#C0_0_d661e98b01" x="649.950341" y="736.839706" style="fill-opacity: 0.180392"/>
    </g>
    <g clip-path="url(#p37e46961da)">
     <use xlink:href="#C0_0_d661e98b01" x="649.950341" y="691.548663" style="fill-opacity: 0.180392"/>
    </g>
    <g clip-path="url(#p37e46961da)">
     <use xlink:href="#C0_0_d661e98b01" x="649.950341" y="646.257621" style="fill-opacity: 0.180392"/>
    </g>
    <g clip-path="url(#p37e46961da)">
     <use xlink:href="#C0_0_d661e98b01" x="792.736023" y="827.421791" style="fill-opacity: 0.180392"/>
    </g>
    <g clip-path="url(#p37e46961da)">
     <use xlink:href="#C0_0_d661e98b01" x="792.736023" y="782.130749" style="stroke: #000000"/>
    </g>
    <g clip-path="url(#p37e46961da)">
     <use xlink:href="#C0_0_d661e98b01" x="792.736023" y="736.839706" style="fill-opacity: 0.180392"/>
    </g>
    <g clip-path="url(#p37e46961da)">
     <use xlink:href="#C0_0_d661e98b01" x="792.736023" y="691.548663" style="stroke: #000000"/>
    </g>
    <g clip-path="url(#p37e46961da)">
     <use xlink:href="#C0_0_d661e98b01" x="792.736023" y="646.257621" style="fill-opacity: 0.180392"/>
    </g>
    <g clip-path="url(#p37e46961da)">
     <use xlink:href="#C0_0_d661e98b01" x="935.521705" y="827.421791" style="stroke: #000000"/>
    </g>
    <g clip-path="url(#p37e46961da)">
     <use xlink:href="#C0_0_d661e98b01" x="935.521705" y="782.130749" style="fill-opacity: 0.180392"/>
    </g>
    <g clip-path="url(#p37e46961da)">
     <use xlink:href="#C0_0_d661e98b01" x="935.521705" y="736.839706" style="stroke: #000000"/>
    </g>
    <g clip-path="url(#p37e46961da)">
     <use xlink:href="#C0_0_d661e98b01" x="935.521705" y="691.548663" style="fill-opacity: 0.180392"/>
    </g>
    <g clip-path="url(#p37e46961da)">
     <use xlink:href="#C0_0_d661e98b01" x="935.521705" y="646.257621" style="fill-opacity: 0.180392"/>
    </g>
    <g clip-path="url(#p37e46961da)">
     <use xlink:href="#C0_0_d661e98b01" x="1078.307386" y="827.421791" style="fill-opacity: 0.180392"/>
    </g>
    <g clip-path="url(#p37e46961da)">
     <use xlink:href="#C0_0_d661e98b01" x="1078.307386" y="782.130749" style="fill-opacity: 0.180392"/>
    </g>
    <g clip-path="url(#p37e46961da)">
     <use xlink:href="#C0_0_d661e98b01" x="1078.307386" y="736.839706" style="stroke: #000000"/>
    </g>
    <g clip-path="url(#p37e46961da)">
     <use xlink:href="#C0_0_d661e98b01" x="1078.307386" y="691.548663" style="stroke: #000000"/>
    </g>
    <g clip-path="url(#p37e46961da)">
     <use xlink:href="#C0_0_d661e98b01" x="1078.307386" y="646.257621" style="fill-opacity: 0.180392"/>
    </g>
    <g clip-path="url(#p37e46961da)">
     <use xlink:href="#C0_0_d661e98b01" x="1221.093068" y="827.421791" style="fill-opacity: 0.180392"/>
    </g>
    <g clip-path="url(#p37e46961da)">
     <use xlink:href="#C0_0_d661e98b01" x="1221.093068" y="782.130749" style="stroke: #000000"/>
    </g>
    <g clip-path="url(#p37e46961da)">
     <use xlink:href="#C0_0_d661e98b01" x="1221.093068" y="736.839706" style="stroke: #000000"/>
    </g>
    <g clip-path="url(#p37e46961da)">
     <use xlink:href="#C0_0_d661e98b01" x="1221.093068" y="691.548663" style="fill-opacity: 0.180392"/>
    </g>
    <g clip-path="url(#p37e46961da)">
     <use xlink:href="#C0_0_d661e98b01" x="1221.093068" y="646.257621" style="fill-opacity: 0.180392"/>
    </g>
    <g clip-path="url(#p37e46961da)">
     <use xlink:href="#C0_0_d661e98b01" x="1363.87875" y="827.421791" style="stroke: #000000"/>
    </g>
    <g clip-path="url(#p37e46961da)">
     <use xlink:href="#C0_0_d661e98b01" x="1363.87875" y="782.130749" style="fill-opacity: 0.180392"/>
    </g>
    <g clip-path="url(#p37e46961da)">
     <use xlink:href="#C0_0_d661e98b01" x="1363.87875" y="736.839706" style="fill-opacity: 0.180392"/>
    </g>
    <g clip-path="url(#p37e46961da)">
     <use xlink:href="#C0_0_d661e98b01" x="1363.87875" y="691.548663" style="stroke: #000000"/>
    </g>
    <g clip-path="url(#p37e46961da)">
     <use xlink:href="#C0_0_d661e98b01" x="1363.87875" y="646.257621" style="fill-opacity: 0.180392"/>
    </g>
    <g clip-path="url(#p37e46961da)">
     <use xlink:href="#C0_0_d661e98b01" x="1506.664432" y="827.421791" style="fill-opacity: 0.180392"/>
    </g>
    <g clip-path="url(#p37e46961da)">
     <use xlink:href="#C0_0_d661e98b01" x="1506.664432" y="782.130749" style="fill-opacity: 0.180392"/>
    </g>
    <g clip-path="url(#p37e46961da)">
     <use xlink:href="#C0_0_d661e98b01" x="1506.664432" y="736.839706" style="stroke: #000000"/>
    </g>
    <g clip-path="url(#p37e46961da)">
     <use xlink:href="#C0_0_d661e98b01" x="1506.664432" y="691.548663" style="fill-opacity: 0.180392"/>
    </g>
    <g clip-path="url(#p37e46961da)">
     <use xlink:href="#C0_0_d661e98b01" x="1506.664432" y="646.257621" style="stroke: #000000"/>
    </g>
    <g clip-path="url(#p37e46961da)">
     <use xlink:href="#C0_0_d661e98b01" x="1649.450114" y="827.421791" style="fill-opacity: 0.180392"/>
    </g>
    <g clip-path="url(#p37e46961da)">
     <use xlink:href="#C0_0_d661e98b01" x="1649.450114" y="782.130749" style="stroke: #000000"/>
    </g>
    <g clip-path="url(#p37e46961da)">
     <use xlink:href="#C0_0_d661e98b01" x="1649.450114" y="736.839706" style="fill-opacity: 0.180392"/>
    </g>
    <g clip-path="url(#p37e46961da)">
     <use xlink:href="#C0_0_d661e98b01" x="1649.450114" y="691.548663" style="fill-opacity: 0.180392"/>
    </g>
    <g clip-path="url(#p37e46961da)">
     <use xlink:href="#C0_0_d661e98b01" x="1649.450114" y="646.257621" style="stroke: #000000"/>
    </g>
    <g clip-path="url(#p37e46961da)">
     <use xlink:href="#C0_0_d661e98b01" x="1792.235795" y="827.421791" style="stroke: #000000"/>
    </g>
    <g clip-path="url(#p37e46961da)">
     <use xlink:href="#C0_0_d661e98b01" x="1792.235795" y="782.130749" style="fill-opacity: 0.180392"/>
    </g>
    <g clip-path="url(#p37e46961da)">
     <use xlink:href="#C0_0_d661e98b01" x="1792.235795" y="736.839706" style="fill-opacity: 0.180392"/>
    </g>
    <g clip-path="url(#p37e46961da)">
     <use xlink:href="#C0_0_d661e98b01" x="1792.235795" y="691.548663" style="stroke: #000000"/>
    </g>
    <g clip-path="url(#p37e46961da)">
     <use xlink:href="#C0_0_d661e98b01" x="1792.235795" y="646.257621" style="stroke: #000000"/>
    </g>
    <g clip-path="url(#p37e46961da)">
     <use xlink:href="#C0_0_d661e98b01" x="1935.021477" y="827.421791" style="stroke: #000000"/>
    </g>
    <g clip-path="url(#p37e46961da)">
     <use xlink:href="#C0_0_d661e98b01" x="1935.021477" y="782.130749" style="stroke: #000000"/>
    </g>
    <g clip-path="url(#p37e46961da)">
     <use xlink:href="#C0_0_d661e98b01" x="1935.021477" y="736.839706" style="fill-opacity: 0.180392"/>
    </g>
    <g clip-path="url(#p37e46961da)">
     <use xlink:href="#C0_0_d661e98b01" x="1935.021477" y="691.548663" style="stroke: #000000"/>
    </g>
    <g clip-path="url(#p37e46961da)">
     <use xlink:href="#C0_0_d661e98b01" x="1935.021477" y="646.257621" style="fill-opacity: 0.180392"/>
    </g>
    <g clip-path="url(#p37e46961da)">
     <use xlink:href="#C0_0_d661e98b01" x="2077.807159" y="827.421791" style="stroke: #000000"/>
    </g>
    <g clip-path="url(#p37e46961da)">
     <use xlink:href="#C0_0_d661e98b01" x="2077.807159" y="782.130749" style="fill-opacity: 0.180392"/>
    </g>
    <g clip-path="url(#p37e46961da)">
     <use xlink:href="#C0_0_d661e98b01" x="2077.807159" y="736.839706" style="stroke: #000000"/>
    </g>
    <g clip-path="url(#p37e46961da)">
     <use xlink:href="#C0_0_d661e98b01" x="2077.807159" y="691.548663" style="fill-opacity: 0.180392"/>
    </g>
    <g clip-path="url(#p37e46961da)">
     <use xlink:href="#C0_0_d661e98b01" x="2077.807159" y="646.257621" style="stroke: #000000"/>
    </g>
   </g>
  </g>
 </g>
 <defs>
  <clipPath id="pecce7be144">
   <rect x="578.5575" y="13.557649" width="1570.6425" height="597.841763"/>
  </clipPath>
  <clipPath id="pce7f0ae79c">
   <rect x="10.8" y="637.199412" width="523.5475" height="199.280588"/>
  </clipPath>
  <clipPath id="p37e46961da">
   <rect x="578.5575" y="637.199412" width="1570.6425" height="199.280588"/>
  </clipPath>
 </defs>
</svg>
