<?xml version="1.0" encoding="utf-8" standalone="no"?>
<!DOCTYPE svg PUBLIC "-//W3C//DTD SVG 1.1//EN"
  "http://www.w3.org/Graphics/SVG/1.1/DTD/svg11.dtd">
<svg xmlns:xlink="http://www.w3.org/1999/xlink" width="2160pt" height="864pt" viewBox="0 0 2160 864" xmlns="http://www.w3.org/2000/svg" version="1.1">
 <metadata>
  <rdf:RDF xmlns:dc="http://purl.org/dc/elements/1.1/" xmlns:cc="http://creativecommons.org/ns#" xmlns:rdf="http://www.w3.org/1999/02/22-rdf-syntax-ns#">
   <cc:Work>
    <dc:type rdf:resource="http://purl.org/dc/dcmitype/StillImage"/>
    <dc:date>2025-12-01T15:48:43.493317</dc:date>
    <dc:format>image/svg+xml</dc:format>
    <dc:creator>
     <cc:Agent>
      <dc:title>Matplotlib v3.9.4, https://matplotlib.org/</dc:title>
     </cc:Agent>
    </dc:creator>
   </cc:Work>
  </rdf:RDF>
 </metadata>
 <defs>
  <style type="text/css">*{stroke-linejoin: round; stroke-linecap: butt}</style>
 </defs>
 <g id="figure_1">
  <g id="patch_1">
   <path d="M 0 864 
L 2160 864 
L 2160 0 
L 0 0 
z
" style="fill: #ffffff"/>
  </g>
  <g id="axes_1"/>
  <g id="axes_2">
   <g id="patch_2">
    <path d="M 584.835 610.71 
L 2149.2 610.71 
L 2149.2 10.8 
L 584.835 10.8 
z
" style="fill: #ffffff"/>
   </g>
   <g id="patch_3">
    <path d="M 604.389562 518.556756 
L 650.016875 518.556756 
L 650.016875 38.068636 
L 604.389562 38.068636 
z
" clip-path="url(#p3e46dd7624)" style="stroke: #d3d3d3; stroke-linejoin: miter"/>
   </g>
   <g id="patch_4">
    <path d="M 734.753312 518.556756 
L 780.380625 518.556756 
L 780.380625 198.231343 
L 734.753312 198.231343 
z
" clip-path="url(#p3e46dd7624)" style="stroke: #d3d3d3; stroke-linejoin: miter"/>
   </g>
   <g id="patch_5">
    <path d="M 865.117062 518.556756 
L 910.744375 518.556756 
L 910.744375 278.312696 
L 865.117062 278.312696 
z
" clip-path="url(#p3e46dd7624)" style="stroke: #d3d3d3; stroke-linejoin: miter"/>
   </g>
   <g id="patch_6">
    <path d="M 995.480812 518.556756 
L 1041.108125 518.556756 
L 1041.108125 278.312696 
L 995.480812 278.312696 
z
" clip-path="url(#p3e46dd7624)" style="stroke: #d3d3d3; stroke-linejoin: miter"/>
   </g>
   <g id="patch_7">
    <path d="M 1125.844562 518.556756 
L 1171.471875 518.556756 
L 1171.471875 438.475403 
L 1125.844562 438.475403 
z
" clip-path="url(#p3e46dd7624)" style="stroke: #d3d3d3; stroke-linejoin: miter"/>
   </g>
   <g id="patch_8">
    <path d="M 1256.208312 518.556756 
L 1301.835625 518.556756 
L 1301.835625 438.475403 
L 1256.208312 438.475403 
z
" clip-path="url(#p3e46dd7624)" style="stroke: #d3d3d3; stroke-linejoin: miter"/>
   </g>
   <g id="patch_9">
    <path d="M 1386.572062 518.556756 
L 1432.199375 518.556756 
L 1432.199375 438.475403 
L 1386.572062 438.475403 
z
" clip-path="url(#p3e46dd7624)" style="stroke: #d3d3d3; stroke-linejoin: miter"/>
   </g>
   <g id="patch_10">
    <path d="M 1516.935812 518.556756 
L 1562.563125 518.556756 
L 1562.563125 438.475403 
L 1516.935812 438.475403 
z
" clip-path="url(#p3e46dd7624)" style="stroke: #d3d3d3; stroke-linejoin: miter"/>
   </g>
   <g id="patch_11">
    <path d="M 1647.299562 518.556756 
L 1692.926875 518.556756 
L 1692.926875 438.475403 
L 1647.299562 438.475403 
z
" clip-path="url(#p3e46dd7624)" style="stroke: #d3d3d3; stroke-linejoin: miter"/>
   </g>
   <g id="patch_12">
    <path d="M 1777.663312 518.556756 
L 1823.290625 518.556756 
L 1823.290625 358.394049 
L 1777.663312 358.394049 
z
" clip-path="url(#p3e46dd7624)" style="stroke: #d3d3d3; stroke-linejoin: miter"/>
   </g>
   <g id="patch_13">
    <path d="M 1908.027062 518.556756 
L 1953.654375 518.556756 
L 1953.654375 438.475403 
L 1908.027062 438.475403 
z
" clip-path="url(#p3e46dd7624)" style="stroke: #d3d3d3; stroke-linejoin: miter"/>
   </g>
   <g id="patch_14">
    <path d="M 2038.390812 518.556756 
L 2084.018125 518.556756 
L 2084.018125 438.475403 
L 2038.390812 438.475403 
z
" clip-path="url(#p3e46dd7624)" style="stroke: #d3d3d3; stroke-linejoin: miter"/>
   </g>
   <g id="patch_15">
    <path d="M 661.423703 518.556756 
L 684.237359 518.556756 
L 684.237359 358.394049 
L 661.423703 358.394049 
z
" clip-path="url(#p3e46dd7624)" style="fill: #808080; opacity: 0.5"/>
   </g>
   <g id="patch_16">
    <path d="M 791.787453 518.556756 
L 814.601109 518.556756 
L 814.601109 358.394049 
L 791.787453 358.394049 
z
" clip-path="url(#p3e46dd7624)" style="fill: #808080; opacity: 0.5"/>
   </g>
   <g id="patch_17">
    <path d="M 922.151203 518.556756 
L 944.964859 518.556756 
L 944.964859 358.394049 
L 922.151203 358.394049 
z
" clip-path="url(#p3e46dd7624)" style="fill: #808080; opacity: 0.5"/>
   </g>
   <g id="patch_18">
    <path d="M 1052.514953 518.556756 
L 1075.328609 518.556756 
L 1075.328609 358.394049 
L 1052.514953 358.394049 
z
" clip-path="url(#p3e46dd7624)" style="fill: #808080; opacity: 0.5"/>
   </g>
   <g id="patch_19">
    <path d="M 1182.878703 518.556756 
L 1205.692359 518.556756 
L 1205.692359 518.556756 
L 1182.878703 518.556756 
z
" clip-path="url(#p3e46dd7624)" style="fill: #808080; opacity: 0.5"/>
   </g>
   <g id="patch_20">
    <path d="M 1313.242453 518.556756 
L 1336.056109 518.556756 
L 1336.056109 518.556756 
L 1313.242453 518.556756 
z
" clip-path="url(#p3e46dd7624)" style="fill: #808080; opacity: 0.5"/>
   </g>
   <g id="patch_21">
    <path d="M 1443.606203 518.556756 
L 1466.419859 518.556756 
L 1466.419859 518.556756 
L 1443.606203 518.556756 
z
" clip-path="url(#p3e46dd7624)" style="fill: #808080; opacity: 0.5"/>
   </g>
   <g id="patch_22">
    <path d="M 1573.969953 518.556756 
L 1596.783609 518.556756 
L 1596.783609 518.556756 
L 1573.969953 518.556756 
z
" clip-path="url(#p3e46dd7624)" style="fill: #808080; opacity: 0.5"/>
   </g>
   <g id="patch_23">
    <path d="M 1704.333703 518.556756 
L 1727.147359 518.556756 
L 1727.147359 518.556756 
L 1704.333703 518.556756 
z
" clip-path="url(#p3e46dd7624)" style="fill: #808080; opacity: 0.5"/>
   </g>
   <g id="patch_24">
    <path d="M 1834.697453 518.556756 
L 1857.511109 518.556756 
L 1857.511109 358.394049 
L 1834.697453 358.394049 
z
" clip-path="url(#p3e46dd7624)" style="fill: #808080; opacity: 0.5"/>
   </g>
   <g id="patch_25">
    <path d="M 1965.061203 518.556756 
L 1987.874859 518.556756 
L 1987.874859 358.394049 
L 1965.061203 358.394049 
z
" clip-path="url(#p3e46dd7624)" style="fill: #808080; opacity: 0.5"/>
   </g>
   <g id="patch_26">
    <path d="M 2095.424953 518.556756 
L 2118.238609 518.556756 
L 2118.238609 358.394049 
L 2095.424953 358.394049 
z
" clip-path="url(#p3e46dd7624)" style="fill: #808080; opacity: 0.5"/>
   </g>
   <g id="matplotlib.axis_1">
    <g id="ytick_1">
     <g id="line2d_1">
      <defs>
       <path id="md1729de181" d="M 0 0 
L -3.5 0 
" style="stroke: #000000; stroke-width: 0.8"/>
      </defs>
      <g>
       <use xlink:href="#md1729de181" x="584.835" y="598.638109" style="stroke: #000000; stroke-width: 0.8"/>
      </g>
     </g>
     <g id="text_1">
      <!-- −1 -->
      <g transform="translate(563.092812 602.437328) scale(0.1 -0.1)">
       <defs>
        <path id="DejaVuSerif-2212" d="M 678 2259 
L 4684 2259 
L 4684 1753 
L 678 1753 
L 678 2259 
z
" transform="scale(0.015625)"/>
        <path id="DejaVuSerif-31" d="M 909 0 
L 909 331 
L 1722 331 
L 1722 4213 
L 781 3603 
L 781 4013 
L 1919 4750 
L 2350 4750 
L 2350 331 
L 3163 331 
L 3163 0 
L 909 0 
z
" transform="scale(0.015625)"/>
       </defs>
       <use xlink:href="#DejaVuSerif-2212"/>
       <use xlink:href="#DejaVuSerif-31" x="83.789062"/>
      </g>
     </g>
    </g>
    <g id="ytick_2">
     <g id="line2d_2">
      <g>
       <use xlink:href="#md1729de181" x="584.835" y="518.556756" style="stroke: #000000; stroke-width: 0.8"/>
      </g>
     </g>
     <g id="text_2">
      <!-- 0 -->
      <g transform="translate(571.4725 522.355975) scale(0.1 -0.1)">
       <defs>
        <path id="DejaVuSerif-30" d="M 2034 219 
Q 2513 219 2750 744 
Q 2988 1269 2988 2328 
Q 2988 3391 2750 3916 
Q 2513 4441 2034 4441 
Q 1556 4441 1318 3916 
Q 1081 3391 1081 2328 
Q 1081 1269 1318 744 
Q 1556 219 2034 219 
z
M 2034 -91 
Q 1275 -91 848 546 
Q 422 1184 422 2328 
Q 422 3475 848 4112 
Q 1275 4750 2034 4750 
Q 2797 4750 3222 4112 
Q 3647 3475 3647 2328 
Q 3647 1184 3222 546 
Q 2797 -91 2034 -91 
z
" transform="scale(0.015625)"/>
       </defs>
       <use xlink:href="#DejaVuSerif-30"/>
      </g>
     </g>
    </g>
    <g id="ytick_3">
     <g id="line2d_3">
      <g>
       <use xlink:href="#md1729de181" x="584.835" y="438.475403" style="stroke: #000000; stroke-width: 0.8"/>
      </g>
     </g>
     <g id="text_3">
      <!-- 1 -->
      <g transform="translate(571.4725 442.274621) scale(0.1 -0.1)">
       <use xlink:href="#DejaVuSerif-31"/>
      </g>
     </g>
    </g>
    <g id="ytick_4">
     <g id="line2d_4">
      <g>
       <use xlink:href="#md1729de181" x="584.835" y="358.394049" style="stroke: #000000; stroke-width: 0.8"/>
      </g>
     </g>
     <g id="text_4">
      <!-- 2 -->
      <g transform="translate(571.4725 362.193268) scale(0.1 -0.1)">
       <defs>
        <path id="DejaVuSerif-32" d="M 819 3553 
L 469 3553 
L 469 4384 
Q 803 4563 1142 4656 
Q 1481 4750 1806 4750 
Q 2534 4750 2956 4397 
Q 3378 4044 3378 3438 
Q 3378 2753 2422 1800 
Q 2347 1728 2309 1691 
L 1131 513 
L 3078 513 
L 3078 1088 
L 3444 1088 
L 3444 0 
L 434 0 
L 434 341 
L 1850 1753 
Q 2319 2222 2519 2614 
Q 2719 3006 2719 3438 
Q 2719 3909 2473 4175 
Q 2228 4441 1797 4441 
Q 1350 4441 1106 4219 
Q 863 3997 819 3553 
z
" transform="scale(0.015625)"/>
       </defs>
       <use xlink:href="#DejaVuSerif-32"/>
      </g>
     </g>
    </g>
    <g id="ytick_5">
     <g id="line2d_5">
      <g>
       <use xlink:href="#md1729de181" x="584.835" y="278.312696" style="stroke: #000000; stroke-width: 0.8"/>
      </g>
     </g>
     <g id="text_5">
      <!-- 3 -->
      <g transform="translate(571.4725 282.111915) scale(0.1 -0.1)">
       <defs>
        <path id="DejaVuSerif-33" d="M 622 4469 
Q 988 4606 1323 4678 
Q 1659 4750 1953 4750 
Q 2638 4750 3022 4454 
Q 3406 4159 3406 3634 
Q 3406 3213 3140 2930 
Q 2875 2647 2388 2547 
Q 2963 2466 3280 2130 
Q 3597 1794 3597 1259 
Q 3597 606 3158 257 
Q 2719 -91 1894 -91 
Q 1528 -91 1179 -12 
Q 831 66 488 225 
L 488 1131 
L 838 1131 
Q 869 681 1141 450 
Q 1413 219 1906 219 
Q 2384 219 2661 495 
Q 2938 772 2938 1253 
Q 2938 1803 2653 2086 
Q 2369 2369 1819 2369 
L 1522 2369 
L 1522 2688 
L 1678 2688 
Q 2225 2688 2498 2914 
Q 2772 3141 2772 3597 
Q 2772 4006 2547 4223 
Q 2322 4441 1900 4441 
Q 1478 4441 1245 4241 
Q 1013 4041 972 3647 
L 622 3647 
L 622 4469 
z
" transform="scale(0.015625)"/>
       </defs>
       <use xlink:href="#DejaVuSerif-33"/>
      </g>
     </g>
    </g>
    <g id="ytick_6">
     <g id="line2d_6">
      <g>
       <use xlink:href="#md1729de181" x="584.835" y="198.231343" style="stroke: #000000; stroke-width: 0.8"/>
      </g>
     </g>
     <g id="text_6">
      <!-- 4 -->
      <g transform="translate(571.4725 202.030562) scale(0.1 -0.1)">
       <defs>
        <path id="DejaVuSerif-34" d="M 2234 1581 
L 2234 4063 
L 641 1581 
L 2234 1581 
z
M 3609 0 
L 1484 0 
L 1484 331 
L 2234 331 
L 2234 1247 
L 197 1247 
L 197 1588 
L 2241 4750 
L 2859 4750 
L 2859 1581 
L 3750 1581 
L 3750 1247 
L 2859 1247 
L 2859 331 
L 3609 331 
L 3609 0 
z
" transform="scale(0.015625)"/>
       </defs>
       <use xlink:href="#DejaVuSerif-34"/>
      </g>
     </g>
    </g>
    <g id="ytick_7">
     <g id="line2d_7">
      <g>
       <use xlink:href="#md1729de181" x="584.835" y="118.14999" style="stroke: #000000; stroke-width: 0.8"/>
      </g>
     </g>
     <g id="text_7">
      <!-- 5 -->
      <g transform="translate(571.4725 121.949208) scale(0.1 -0.1)">
       <defs>
        <path id="DejaVuSerif-35" d="M 3219 4666 
L 3219 4153 
L 1081 4153 
L 1081 2816 
Q 1244 2928 1461 2984 
Q 1678 3041 1947 3041 
Q 2703 3041 3140 2622 
Q 3578 2203 3578 1478 
Q 3578 738 3136 323 
Q 2694 -91 1894 -91 
Q 1572 -91 1234 -12 
Q 897 66 544 225 
L 544 1131 
L 897 1131 
Q 925 688 1179 453 
Q 1434 219 1894 219 
Q 2388 219 2653 544 
Q 2919 869 2919 1478 
Q 2919 2084 2655 2407 
Q 2391 2731 1894 2731 
Q 1613 2731 1398 2631 
Q 1184 2531 1019 2322 
L 750 2322 
L 750 4666 
L 3219 4666 
z
" transform="scale(0.015625)"/>
       </defs>
       <use xlink:href="#DejaVuSerif-35"/>
      </g>
     </g>
    </g>
    <g id="ytick_8">
     <g id="line2d_8">
      <g>
       <use xlink:href="#md1729de181" x="584.835" y="38.068636" style="stroke: #000000; stroke-width: 0.8"/>
      </g>
     </g>
     <g id="text_8">
      <!-- 6 -->
      <g transform="translate(571.4725 41.867855) scale(0.1 -0.1)">
       <defs>
        <path id="DejaVuSerif-36" d="M 2094 219 
Q 2534 219 2771 542 
Q 3009 866 3009 1472 
Q 3009 2078 2771 2401 
Q 2534 2725 2094 2725 
Q 1647 2725 1412 2412 
Q 1178 2100 1178 1509 
Q 1178 888 1415 553 
Q 1653 219 2094 219 
z
M 1075 2569 
Q 1288 2803 1556 2918 
Q 1825 3034 2163 3034 
Q 2859 3034 3264 2615 
Q 3669 2197 3669 1472 
Q 3669 763 3233 336 
Q 2797 -91 2069 -91 
Q 1278 -91 853 498 
Q 428 1088 428 2181 
Q 428 3406 931 4078 
Q 1434 4750 2350 4750 
Q 2597 4750 2869 4703 
Q 3141 4656 3425 4563 
L 3425 3794 
L 3072 3794 
Q 3034 4109 2831 4275 
Q 2628 4441 2284 4441 
Q 1678 4441 1381 3981 
Q 1084 3522 1075 2569 
z
" transform="scale(0.015625)"/>
       </defs>
       <use xlink:href="#DejaVuSerif-36"/>
      </g>
     </g>
    </g>
    <g id="text_9">
     <!-- Counts -->
     <g transform="translate(557.013125 328.606562) rotate(-90) scale(0.1 -0.1)">
      <defs>
       <path id="DejaVuSerif-43" d="M 4513 1234 
Q 4306 581 3820 245 
Q 3334 -91 2591 -91 
Q 2134 -91 1743 65 
Q 1353 222 1050 525 
Q 700 875 529 1320 
Q 359 1766 359 2328 
Q 359 3416 987 4083 
Q 1616 4750 2644 4750 
Q 3025 4750 3456 4650 
Q 3888 4550 4384 4347 
L 4384 3272 
L 4031 3272 
Q 3916 3859 3567 4137 
Q 3219 4416 2591 4416 
Q 1844 4416 1459 3886 
Q 1075 3356 1075 2328 
Q 1075 1303 1459 773 
Q 1844 244 2591 244 
Q 3113 244 3450 492 
Q 3788 741 3938 1234 
L 4513 1234 
z
" transform="scale(0.015625)"/>
       <path id="DejaVuSerif-6f" d="M 1925 219 
Q 2388 219 2623 584 
Q 2859 950 2859 1663 
Q 2859 2375 2623 2739 
Q 2388 3103 1925 3103 
Q 1463 3103 1227 2739 
Q 991 2375 991 1663 
Q 991 950 1228 584 
Q 1466 219 1925 219 
z
M 1925 -91 
Q 1200 -91 759 389 
Q 319 869 319 1663 
Q 319 2456 758 2934 
Q 1197 3413 1925 3413 
Q 2653 3413 3092 2934 
Q 3531 2456 3531 1663 
Q 3531 869 3092 389 
Q 2653 -91 1925 -91 
z
" transform="scale(0.015625)"/>
       <path id="DejaVuSerif-75" d="M 2266 3322 
L 3341 3322 
L 3341 331 
L 3884 331 
L 3884 0 
L 2766 0 
L 2766 588 
Q 2606 256 2353 82 
Q 2100 -91 1766 -91 
Q 1213 -91 952 223 
Q 691 538 691 1209 
L 691 2988 
L 172 2988 
L 172 3322 
L 1269 3322 
L 1269 1388 
Q 1269 781 1417 556 
Q 1566 331 1947 331 
Q 2347 331 2556 625 
Q 2766 919 2766 1478 
L 2766 2988 
L 2266 2988 
L 2266 3322 
z
" transform="scale(0.015625)"/>
       <path id="DejaVuSerif-6e" d="M 263 0 
L 263 331 
L 781 331 
L 781 2988 
L 231 2988 
L 231 3322 
L 1356 3322 
L 1356 2731 
Q 1516 3069 1770 3241 
Q 2025 3413 2363 3413 
Q 2913 3413 3172 3097 
Q 3431 2781 3431 2113 
L 3431 331 
L 3944 331 
L 3944 0 
L 2356 0 
L 2356 331 
L 2853 331 
L 2853 1931 
Q 2853 2541 2703 2767 
Q 2553 2994 2175 2994 
Q 1775 2994 1565 2701 
Q 1356 2409 1356 1850 
L 1356 331 
L 1856 331 
L 1856 0 
L 263 0 
z
" transform="scale(0.015625)"/>
       <path id="DejaVuSerif-74" d="M 691 2988 
L 184 2988 
L 184 3322 
L 691 3322 
L 691 4353 
L 1269 4353 
L 1269 3322 
L 2350 3322 
L 2350 2988 
L 1269 2988 
L 1269 878 
Q 1269 456 1350 337 
Q 1431 219 1650 219 
Q 1875 219 1978 351 
Q 2081 484 2088 781 
L 2522 781 
Q 2497 328 2275 118 
Q 2053 -91 1600 -91 
Q 1103 -91 897 129 
Q 691 350 691 878 
L 691 2988 
z
" transform="scale(0.015625)"/>
       <path id="DejaVuSerif-73" d="M 359 184 
L 359 959 
L 691 959 
Q 703 588 923 403 
Q 1144 219 1575 219 
Q 1963 219 2166 364 
Q 2369 509 2369 788 
Q 2369 1006 2220 1140 
Q 2072 1275 1594 1428 
L 1178 1569 
Q 750 1706 558 1912 
Q 366 2119 366 2438 
Q 366 2894 700 3153 
Q 1034 3413 1625 3413 
Q 1888 3413 2178 3344 
Q 2469 3275 2778 3144 
L 2778 2419 
L 2447 2419 
Q 2434 2741 2221 2922 
Q 2009 3103 1644 3103 
Q 1281 3103 1095 2975 
Q 909 2847 909 2591 
Q 909 2381 1050 2254 
Q 1191 2128 1613 1997 
L 2069 1856 
Q 2541 1709 2748 1489 
Q 2956 1269 2956 922 
Q 2956 450 2595 179 
Q 2234 -91 1600 -91 
Q 1278 -91 972 -22 
Q 666 47 359 184 
z
" transform="scale(0.015625)"/>
      </defs>
      <use xlink:href="#DejaVuSerif-43"/>
      <use xlink:href="#DejaVuSerif-6f" x="76.513672"/>
      <use xlink:href="#DejaVuSerif-75" x="136.71875"/>
      <use xlink:href="#DejaVuSerif-6e" x="201.123047"/>
      <use xlink:href="#DejaVuSerif-74" x="265.527344"/>
      <use xlink:href="#DejaVuSerif-73" x="305.712891"/>
     </g>
    </g>
   </g>
   <g id="LineCollection_1">
    <path d="M 672.830531 487.521741 
L 672.830531 229.266358 
" clip-path="url(#p3e46dd7624)" style="fill: none; stroke: #d3d3d3; stroke-width: 1.5"/>
    <path d="M 803.194281 487.521741 
L 803.194281 229.266358 
" clip-path="url(#p3e46dd7624)" style="fill: none; stroke: #d3d3d3; stroke-width: 1.5"/>
    <path d="M 933.558031 487.521741 
L 933.558031 229.266358 
" clip-path="url(#p3e46dd7624)" style="fill: none; stroke: #d3d3d3; stroke-width: 1.5"/>
    <path d="M 1063.921781 487.521741 
L 1063.921781 229.266358 
" clip-path="url(#p3e46dd7624)" style="fill: none; stroke: #d3d3d3; stroke-width: 1.5"/>
    <path d="M 1194.285531 583.441364 
L 1194.285531 453.672148 
" clip-path="url(#p3e46dd7624)" style="fill: none; stroke: #d3d3d3; stroke-width: 1.5"/>
    <path d="M 1324.649281 583.441364 
L 1324.649281 453.672148 
" clip-path="url(#p3e46dd7624)" style="fill: none; stroke: #d3d3d3; stroke-width: 1.5"/>
    <path d="M 1455.013031 583.441364 
L 1455.013031 453.672148 
" clip-path="url(#p3e46dd7624)" style="fill: none; stroke: #d3d3d3; stroke-width: 1.5"/>
    <path d="M 1585.376781 583.441364 
L 1585.376781 453.672148 
" clip-path="url(#p3e46dd7624)" style="fill: none; stroke: #d3d3d3; stroke-width: 1.5"/>
    <path d="M 1715.740531 551.039031 
L 1715.740531 486.074481 
" clip-path="url(#p3e46dd7624)" style="fill: none; stroke: #d3d3d3; stroke-width: 1.5"/>
    <path d="M 1846.104281 487.521741 
L 1846.104281 229.266358 
" clip-path="url(#p3e46dd7624)" style="fill: none; stroke: #d3d3d3; stroke-width: 1.5"/>
    <path d="M 1976.468031 487.521741 
L 1976.468031 229.266358 
" clip-path="url(#p3e46dd7624)" style="fill: none; stroke: #d3d3d3; stroke-width: 1.5"/>
    <path d="M 2106.831781 487.521741 
L 2106.831781 229.266358 
" clip-path="url(#p3e46dd7624)" style="fill: none; stroke: #d3d3d3; stroke-width: 1.5"/>
   </g>
   <g id="patch_27">
    <path d="M 584.835 610.71 
L 584.835 10.8 
" style="fill: none; stroke: #000000; stroke-width: 0.8; stroke-linejoin: miter; stroke-linecap: square"/>
   </g>
  </g>
  <g id="axes_3">
   <g id="patch_28">
    <path d="M 538.6 827.390455 
L 17.145 827.390455 
L 17.145 807.191465 
L 538.6 807.191465 
z
" clip-path="url(#pb4f7f0e9a1)" style="stroke: #000000; stroke-linejoin: miter"/>
   </g>
   <g id="patch_29">
    <path d="M 538.6 786.992475 
L 133.023889 786.992475 
L 133.023889 766.793485 
L 538.6 766.793485 
z
" clip-path="url(#pb4f7f0e9a1)" style="stroke: #000000; stroke-linejoin: miter"/>
   </g>
   <g id="patch_30">
    <path d="M 538.6 746.594495 
L 248.902778 746.594495 
L 248.902778 726.395505 
L 538.6 726.395505 
z
" clip-path="url(#pb4f7f0e9a1)" style="stroke: #000000; stroke-linejoin: miter"/>
   </g>
   <g id="patch_31">
    <path d="M 538.6 706.196515 
L 277.8725 706.196515 
L 277.8725 685.997525 
L 538.6 685.997525 
z
" clip-path="url(#pb4f7f0e9a1)" style="stroke: #000000; stroke-linejoin: miter"/>
   </g>
   <g id="patch_32">
    <path d="M 538.6 665.798535 
L 393.751389 665.798535 
L 393.751389 645.599545 
L 538.6 645.599545 
z
" clip-path="url(#pb4f7f0e9a1)" style="stroke: #000000; stroke-linejoin: miter"/>
   </g>
   <g id="matplotlib.axis_2">
    <g id="xtick_1">
     <g id="line2d_9">
      <path d="M 538.6 836.48 
L 538.6 636.51 
" clip-path="url(#pb4f7f0e9a1)" style="fill: none; stroke: #b0b0b0; stroke-width: 0.8; stroke-linecap: square"/>
     </g>
     <g id="line2d_10">
      <defs>
       <path id="m6b11ed8901" d="M 0 0 
L 0 3.5 
" style="stroke: #000000; stroke-width: 0.8"/>
      </defs>
      <g>
       <use xlink:href="#m6b11ed8901" x="538.6" y="836.48" style="stroke: #000000; stroke-width: 0.8"/>
      </g>
     </g>
     <g id="text_10">
      <!-- 0 -->
      <g transform="translate(535.41875 851.078437) scale(0.1 -0.1)">
       <use xlink:href="#DejaVuSerif-30"/>
      </g>
     </g>
    </g>
    <g id="xtick_2">
     <g id="line2d_11">
      <path d="M 480.660556 836.48 
L 480.660556 636.51 
" clip-path="url(#pb4f7f0e9a1)" style="fill: none; stroke: #b0b0b0; stroke-width: 0.8; stroke-linecap: square"/>
     </g>
     <g id="line2d_12">
      <g>
       <use xlink:href="#m6b11ed8901" x="480.660556" y="836.48" style="stroke: #000000; stroke-width: 0.8"/>
      </g>
     </g>
     <g id="text_11">
      <!-- 2 -->
      <g transform="translate(477.479306 851.078437) scale(0.1 -0.1)">
       <use xlink:href="#DejaVuSerif-32"/>
      </g>
     </g>
    </g>
    <g id="xtick_3">
     <g id="line2d_13">
      <path d="M 422.721111 836.48 
L 422.721111 636.51 
" clip-path="url(#pb4f7f0e9a1)" style="fill: none; stroke: #b0b0b0; stroke-width: 0.8; stroke-linecap: square"/>
     </g>
     <g id="line2d_14">
      <g>
       <use xlink:href="#m6b11ed8901" x="422.721111" y="836.48" style="stroke: #000000; stroke-width: 0.8"/>
      </g>
     </g>
     <g id="text_12">
      <!-- 4 -->
      <g transform="translate(419.539861 851.078437) scale(0.1 -0.1)">
       <use xlink:href="#DejaVuSerif-34"/>
      </g>
     </g>
    </g>
    <g id="xtick_4">
     <g id="line2d_15">
      <path d="M 364.781667 836.48 
L 364.781667 636.51 
" clip-path="url(#pb4f7f0e9a1)" style="fill: none; stroke: #b0b0b0; stroke-width: 0.8; stroke-linecap: square"/>
     </g>
     <g id="line2d_16">
      <g>
       <use xlink:href="#m6b11ed8901" x="364.781667" y="836.48" style="stroke: #000000; stroke-width: 0.8"/>
      </g>
     </g>
     <g id="text_13">
      <!-- 6 -->
      <g transform="translate(361.600417 851.078437) scale(0.1 -0.1)">
       <use xlink:href="#DejaVuSerif-36"/>
      </g>
     </g>
    </g>
    <g id="xtick_5">
     <g id="line2d_17">
      <path d="M 306.842222 836.48 
L 306.842222 636.51 
" clip-path="url(#pb4f7f0e9a1)" style="fill: none; stroke: #b0b0b0; stroke-width: 0.8; stroke-linecap: square"/>
     </g>
     <g id="line2d_18">
      <g>
       <use xlink:href="#m6b11ed8901" x="306.842222" y="836.48" style="stroke: #000000; stroke-width: 0.8"/>
      </g>
     </g>
     <g id="text_14">
      <!-- 8 -->
      <g transform="translate(303.660972 851.078437) scale(0.1 -0.1)">
       <defs>
        <path id="DejaVuSerif-38" d="M 2981 1275 
Q 2981 1775 2732 2051 
Q 2484 2328 2034 2328 
Q 1584 2328 1336 2051 
Q 1088 1775 1088 1275 
Q 1088 772 1336 495 
Q 1584 219 2034 219 
Q 2484 219 2732 495 
Q 2981 772 2981 1275 
z
M 2853 3541 
Q 2853 3966 2637 4203 
Q 2422 4441 2034 4441 
Q 1650 4441 1433 4203 
Q 1216 3966 1216 3541 
Q 1216 3113 1433 2875 
Q 1650 2638 2034 2638 
Q 2422 2638 2637 2875 
Q 2853 3113 2853 3541 
z
M 2516 2484 
Q 3047 2413 3344 2092 
Q 3641 1772 3641 1275 
Q 3641 619 3225 264 
Q 2809 -91 2034 -91 
Q 1263 -91 845 264 
Q 428 619 428 1275 
Q 428 1772 725 2092 
Q 1022 2413 1556 2484 
Q 1084 2569 832 2842 
Q 581 3116 581 3541 
Q 581 4103 968 4426 
Q 1356 4750 2034 4750 
Q 2713 4750 3100 4426 
Q 3488 4103 3488 3541 
Q 3488 3116 3236 2842 
Q 2984 2569 2516 2484 
z
" transform="scale(0.015625)"/>
       </defs>
       <use xlink:href="#DejaVuSerif-38"/>
      </g>
     </g>
    </g>
    <g id="xtick_6">
     <g id="line2d_19">
      <path d="M 248.902778 836.48 
L 248.902778 636.51 
" clip-path="url(#pb4f7f0e9a1)" style="fill: none; stroke: #b0b0b0; stroke-width: 0.8; stroke-linecap: square"/>
     </g>
     <g id="line2d_20">
      <g>
       <use xlink:href="#m6b11ed8901" x="248.902778" y="836.48" style="stroke: #000000; stroke-width: 0.8"/>
      </g>
     </g>
     <g id="text_15">
      <!-- 10 -->
      <g transform="translate(242.540278 851.078437) scale(0.1 -0.1)">
       <use xlink:href="#DejaVuSerif-31"/>
       <use xlink:href="#DejaVuSerif-30" x="63.623047"/>
      </g>
     </g>
    </g>
    <g id="xtick_7">
     <g id="line2d_21">
      <path d="M 190.963333 836.48 
L 190.963333 636.51 
" clip-path="url(#pb4f7f0e9a1)" style="fill: none; stroke: #b0b0b0; stroke-width: 0.8; stroke-linecap: square"/>
     </g>
     <g id="line2d_22">
      <g>
       <use xlink:href="#m6b11ed8901" x="190.963333" y="836.48" style="stroke: #000000; stroke-width: 0.8"/>
      </g>
     </g>
     <g id="text_16">
      <!-- 12 -->
      <g transform="translate(184.600833 851.078437) scale(0.1 -0.1)">
       <use xlink:href="#DejaVuSerif-31"/>
       <use xlink:href="#DejaVuSerif-32" x="63.623047"/>
      </g>
     </g>
    </g>
    <g id="xtick_8">
     <g id="line2d_23">
      <path d="M 133.023889 836.48 
L 133.023889 636.51 
" clip-path="url(#pb4f7f0e9a1)" style="fill: none; stroke: #b0b0b0; stroke-width: 0.8; stroke-linecap: square"/>
     </g>
     <g id="line2d_24">
      <g>
       <use xlink:href="#m6b11ed8901" x="133.023889" y="836.48" style="stroke: #000000; stroke-width: 0.8"/>
      </g>
     </g>
     <g id="text_17">
      <!-- 14 -->
      <g transform="translate(126.661389 851.078437) scale(0.1 -0.1)">
       <use xlink:href="#DejaVuSerif-31"/>
       <use xlink:href="#DejaVuSerif-34" x="63.623047"/>
      </g>
     </g>
    </g>
    <g id="xtick_9">
     <g id="line2d_25">
      <path d="M 75.084444 836.48 
L 75.084444 636.51 
" clip-path="url(#pb4f7f0e9a1)" style="fill: none; stroke: #b0b0b0; stroke-width: 0.8; stroke-linecap: square"/>
     </g>
     <g id="line2d_26">
      <g>
       <use xlink:href="#m6b11ed8901" x="75.084444" y="836.48" style="stroke: #000000; stroke-width: 0.8"/>
      </g>
     </g>
     <g id="text_18">
      <!-- 16 -->
      <g transform="translate(68.721944 851.078437) scale(0.1 -0.1)">
       <use xlink:href="#DejaVuSerif-31"/>
       <use xlink:href="#DejaVuSerif-36" x="63.623047"/>
      </g>
     </g>
    </g>
    <g id="xtick_10">
     <g id="line2d_27">
      <path d="M 17.145 836.48 
L 17.145 636.51 
" clip-path="url(#pb4f7f0e9a1)" style="fill: none; stroke: #b0b0b0; stroke-width: 0.8; stroke-linecap: square"/>
     </g>
     <g id="line2d_28">
      <g>
       <use xlink:href="#m6b11ed8901" x="17.145" y="836.48" style="stroke: #000000; stroke-width: 0.8"/>
      </g>
     </g>
     <g id="text_19">
      <!-- 18 -->
      <g transform="translate(10.7825 851.078437) scale(0.1 -0.1)">
       <use xlink:href="#DejaVuSerif-31"/>
       <use xlink:href="#DejaVuSerif-38" x="63.623047"/>
      </g>
     </g>
    </g>
   </g>
   <g id="patch_33">
    <path d="M 17.145 836.48 
L 538.6 836.48 
" style="fill: none; stroke: #000000; stroke-width: 0.8; stroke-linejoin: miter; stroke-linecap: square"/>
   </g>
   <g id="text_20">
    <!-- Totals -->
    <g transform="translate(259.736563 630.51) scale(0.12 -0.12)">
     <defs>
      <path id="DejaVuSerif-54" d="M 1222 0 
L 1222 331 
L 1819 331 
L 1819 4294 
L 447 4294 
L 447 3566 
L 63 3566 
L 63 4666 
L 4206 4666 
L 4206 3566 
L 3822 3566 
L 3822 4294 
L 2450 4294 
L 2450 331 
L 3047 331 
L 3047 0 
L 1222 0 
z
" transform="scale(0.015625)"/>
      <path id="DejaVuSerif-61" d="M 2547 1044 
L 2547 1747 
L 1806 1747 
Q 1378 1747 1168 1562 
Q 959 1378 959 997 
Q 959 650 1171 447 
Q 1384 244 1747 244 
Q 2106 244 2326 466 
Q 2547 688 2547 1044 
z
M 3122 2075 
L 3122 331 
L 3634 331 
L 3634 0 
L 2547 0 
L 2547 359 
Q 2356 128 2106 18 
Q 1856 -91 1522 -91 
Q 969 -91 644 203 
Q 319 497 319 997 
Q 319 1513 691 1797 
Q 1063 2081 1741 2081 
L 2547 2081 
L 2547 2309 
Q 2547 2688 2317 2895 
Q 2088 3103 1672 3103 
Q 1328 3103 1125 2947 
Q 922 2791 872 2484 
L 575 2484 
L 575 3156 
Q 875 3284 1158 3348 
Q 1441 3413 1709 3413 
Q 2400 3413 2761 3070 
Q 3122 2728 3122 2075 
z
" transform="scale(0.015625)"/>
      <path id="DejaVuSerif-6c" d="M 1313 331 
L 1856 331 
L 1856 0 
L 184 0 
L 184 331 
L 738 331 
L 738 4531 
L 184 4531 
L 184 4863 
L 1313 4863 
L 1313 331 
z
" transform="scale(0.015625)"/>
     </defs>
     <use xlink:href="#DejaVuSerif-54"/>
     <use xlink:href="#DejaVuSerif-6f" x="58.949219"/>
     <use xlink:href="#DejaVuSerif-74" x="119.154297"/>
     <use xlink:href="#DejaVuSerif-61" x="159.339844"/>
     <use xlink:href="#DejaVuSerif-6c" x="218.958984"/>
     <use xlink:href="#DejaVuSerif-73" x="250.941406"/>
    </g>
   </g>
  </g>
  <g id="axes_4">
   <g id="matplotlib.axis_3">
    <g id="ytick_9">
     <g id="line2d_29"/>
     <g id="text_21">
      <!-- lm -->
      <g transform="translate(568.65375 831.189673) scale(0.1 -0.1)">
       <defs>
        <path id="DejaVuSerif-6d" d="M 3316 2675 
Q 3481 3041 3739 3227 
Q 3997 3413 4341 3413 
Q 4863 3413 5119 3089 
Q 5375 2766 5375 2113 
L 5375 331 
L 5894 331 
L 5894 0 
L 4300 0 
L 4300 331 
L 4800 331 
L 4800 2047 
Q 4800 2556 4650 2772 
Q 4500 2988 4153 2988 
Q 3769 2988 3567 2697 
Q 3366 2406 3366 1850 
L 3366 331 
L 3866 331 
L 3866 0 
L 2291 0 
L 2291 331 
L 2791 331 
L 2791 2069 
Q 2791 2566 2641 2777 
Q 2491 2988 2144 2988 
Q 1759 2988 1557 2697 
Q 1356 2406 1356 1850 
L 1356 331 
L 1856 331 
L 1856 0 
L 263 0 
L 263 331 
L 781 331 
L 781 2994 
L 231 2994 
L 231 3322 
L 1356 3322 
L 1356 2731 
Q 1516 3063 1762 3238 
Q 2009 3413 2322 3413 
Q 2709 3413 2968 3220 
Q 3228 3028 3316 2675 
z
" transform="scale(0.015625)"/>
       </defs>
       <use xlink:href="#DejaVuSerif-6c"/>
       <use xlink:href="#DejaVuSerif-6d" x="31.982422"/>
      </g>
     </g>
    </g>
    <g id="ytick_10">
     <g id="line2d_30"/>
     <g id="text_22">
      <!-- am -->
      <g transform="translate(565.889687 785.741946) scale(0.1 -0.1)">
       <use xlink:href="#DejaVuSerif-61"/>
       <use xlink:href="#DejaVuSerif-6d" x="59.619141"/>
      </g>
     </g>
    </g>
    <g id="ytick_11">
     <g id="line2d_31"/>
     <g id="text_23">
      <!-- pm -->
      <g transform="translate(565.450625 740.294219) scale(0.1 -0.1)">
       <defs>
        <path id="DejaVuSerif-70" d="M 1313 1825 
L 1313 1497 
Q 1313 897 1542 583 
Q 1772 269 2209 269 
Q 2650 269 2876 622 
Q 3103 975 3103 1663 
Q 3103 2353 2876 2703 
Q 2650 3053 2209 3053 
Q 1772 3053 1542 2737 
Q 1313 2422 1313 1825 
z
M 738 2988 
L 184 2988 
L 184 3322 
L 1313 3322 
L 1313 2803 
Q 1481 3116 1742 3264 
Q 2003 3413 2388 3413 
Q 3000 3413 3387 2928 
Q 3775 2444 3775 1663 
Q 3775 881 3387 395 
Q 3000 -91 2388 -91 
Q 2003 -91 1742 57 
Q 1481 206 1313 519 
L 1313 -997 
L 1856 -997 
L 1856 -1331 
L 184 -1331 
L 184 -997 
L 738 -997 
L 738 2988 
z
" transform="scale(0.015625)"/>
       </defs>
       <use xlink:href="#DejaVuSerif-70"/>
       <use xlink:href="#DejaVuSerif-6d" x="64.013672"/>
      </g>
     </g>
    </g>
    <g id="ytick_12">
     <g id="line2d_32"/>
     <g id="text_24">
      <!-- rsp -->
      <g transform="translate(565.0225 694.846491) scale(0.1 -0.1)">
       <defs>
        <path id="DejaVuSerif-72" d="M 3059 3328 
L 3059 2497 
L 2728 2497 
Q 2713 2744 2591 2866 
Q 2469 2988 2234 2988 
Q 1809 2988 1582 2694 
Q 1356 2400 1356 1850 
L 1356 331 
L 2022 331 
L 2022 0 
L 263 0 
L 263 331 
L 781 331 
L 781 2994 
L 231 2994 
L 231 3322 
L 1356 3322 
L 1356 2731 
Q 1525 3078 1790 3245 
Q 2056 3413 2438 3413 
Q 2578 3413 2733 3391 
Q 2888 3369 3059 3328 
z
" transform="scale(0.015625)"/>
       </defs>
       <use xlink:href="#DejaVuSerif-72"/>
       <use xlink:href="#DejaVuSerif-73" x="47.802734"/>
       <use xlink:href="#DejaVuSerif-70" x="99.121094"/>
      </g>
     </g>
    </g>
    <g id="ytick_13">
     <g id="line2d_33"/>
     <g id="text_25">
      <!-- al -->
      <g transform="translate(572.174062 649.398764) scale(0.1 -0.1)">
       <use xlink:href="#DejaVuSerif-61"/>
       <use xlink:href="#DejaVuSerif-6c" x="59.619141"/>
      </g>
     </g>
    </g>
   </g>
   <g id="LineCollection_2">
    <path d="M 650.016875 827.390455 
L 650.016875 781.942727 
" clip-path="url(#p8f2ce732e7)" style="fill: none; stroke: #000000; stroke-width: 2"/>
    <path d="M 780.380625 827.390455 
L 780.380625 645.599545 
" clip-path="url(#p8f2ce732e7)" style="fill: none; stroke: #000000; stroke-width: 2"/>
    <path d="M 910.744375 827.390455 
L 910.744375 691.047273 
" clip-path="url(#p8f2ce732e7)" style="fill: none; stroke: #000000; stroke-width: 2"/>
    <path d="M 1041.108125 781.942727 
L 1041.108125 736.495 
" clip-path="url(#p8f2ce732e7)" style="fill: none; stroke: #000000; stroke-width: 2"/>
    <path d="M 1171.471875 781.942727 
L 1171.471875 691.047273 
" clip-path="url(#p8f2ce732e7)" style="fill: none; stroke: #000000; stroke-width: 2"/>
    <path d="M 1301.835625 736.495 
L 1301.835625 645.599545 
" clip-path="url(#p8f2ce732e7)" style="fill: none; stroke: #000000; stroke-width: 2"/>
    <path d="M 1432.199375 827.390455 
L 1432.199375 691.047273 
" clip-path="url(#p8f2ce732e7)" style="fill: none; stroke: #000000; stroke-width: 2"/>
    <path d="M 1562.563125 827.390455 
L 1562.563125 736.495 
" clip-path="url(#p8f2ce732e7)" style="fill: none; stroke: #000000; stroke-width: 2"/>
    <path d="M 1692.926875 827.390455 
L 1692.926875 691.047273 
" clip-path="url(#p8f2ce732e7)" style="fill: none; stroke: #000000; stroke-width: 2"/>
    <path d="M 1823.290625 827.390455 
L 1823.290625 736.495 
" clip-path="url(#p8f2ce732e7)" style="fill: none; stroke: #000000; stroke-width: 2"/>
    <path d="M 1953.654375 736.495 
L 1953.654375 691.047273 
" clip-path="url(#p8f2ce732e7)" style="fill: none; stroke: #000000; stroke-width: 2"/>
    <path d="M 2084.018125 781.942727 
L 2084.018125 691.047273 
" clip-path="url(#p8f2ce732e7)" style="fill: none; stroke: #000000; stroke-width: 2"/>
   </g>
   <g id="PathCollection_1">
    <defs>
     <path id="C0_0_f1855fff1c" d="M 0 5.6 
C 1.485137 5.6 2.909647 5.009949 3.959798 3.959798 
C 5.009949 2.909647 5.6 1.485137 5.6 -0 
C 5.6 -1.485137 5.009949 -2.909647 3.959798 -3.959798 
C 2.909647 -5.009949 1.485137 -5.6 0 -5.6 
C -1.485137 -5.6 -2.909647 -5.009949 -3.959798 -3.959798 
C -5.009949 -2.909647 -5.6 -1.485137 -5.6 0 
C -5.6 1.485137 -5.009949 2.909647 -3.959798 3.959798 
C -2.909647 5.009949 -1.485137 5.6 0 5.6 
z
"/>
    </defs>
    <g clip-path="url(#p8f2ce732e7)">
     <use xlink:href="#C0_0_f1855fff1c" x="650.016875" y="827.390455" style="stroke: #000000"/>
    </g>
    <g clip-path="url(#p8f2ce732e7)">
     <use xlink:href="#C0_0_f1855fff1c" x="650.016875" y="781.942727" style="stroke: #000000"/>
    </g>
    <g clip-path="url(#p8f2ce732e7)">
     <use xlink:href="#C0_0_f1855fff1c" x="650.016875" y="736.495" style="fill-opacity: 0.180392"/>
    </g>
    <g clip-path="url(#p8f2ce732e7)">
     <use xlink:href="#C0_0_f1855fff1c" x="650.016875" y="691.047273" style="fill-opacity: 0.180392"/>
    </g>
    <g clip-path="url(#p8f2ce732e7)">
     <use xlink:href="#C0_0_f1855fff1c" x="650.016875" y="645.599545" style="fill-opacity: 0.180392"/>
    </g>
    <g clip-path="url(#p8f2ce732e7)">
     <use xlink:href="#C0_0_f1855fff1c" x="780.380625" y="827.390455" style="stroke: #000000"/>
    </g>
    <g clip-path="url(#p8f2ce732e7)">
     <use xlink:href="#C0_0_f1855fff1c" x="780.380625" y="781.942727" style="fill-opacity: 0.180392"/>
    </g>
    <g clip-path="url(#p8f2ce732e7)">
     <use xlink:href="#C0_0_f1855fff1c" x="780.380625" y="736.495" style="fill-opacity: 0.180392"/>
    </g>
    <g clip-path="url(#p8f2ce732e7)">
     <use xlink:href="#C0_0_f1855fff1c" x="780.380625" y="691.047273" style="fill-opacity: 0.180392"/>
    </g>
    <g clip-path="url(#p8f2ce732e7)">
     <use xlink:href="#C0_0_f1855fff1c" x="780.380625" y="645.599545" style="stroke: #000000"/>
    </g>
    <g clip-path="url(#p8f2ce732e7)">
     <use xlink:href="#C0_0_f1855fff1c" x="910.744375" y="827.390455" style="stroke: #000000"/>
    </g>
    <g clip-path="url(#p8f2ce732e7)">
     <use xlink:href="#C0_0_f1855fff1c" x="910.744375" y="781.942727" style="fill-opacity: 0.180392"/>
    </g>
    <g clip-path="url(#p8f2ce732e7)">
     <use xlink:href="#C0_0_f1855fff1c" x="910.744375" y="736.495" style="fill-opacity: 0.180392"/>
    </g>
    <g clip-path="url(#p8f2ce732e7)">
     <use xlink:href="#C0_0_f1855fff1c" x="910.744375" y="691.047273" style="stroke: #000000"/>
    </g>
    <g clip-path="url(#p8f2ce732e7)">
     <use xlink:href="#C0_0_f1855fff1c" x="910.744375" y="645.599545" style="fill-opacity: 0.180392"/>
    </g>
    <g clip-path="url(#p8f2ce732e7)">
     <use xlink:href="#C0_0_f1855fff1c" x="1041.108125" y="827.390455" style="fill-opacity: 0.180392"/>
    </g>
    <g clip-path="url(#p8f2ce732e7)">
     <use xlink:href="#C0_0_f1855fff1c" x="1041.108125" y="781.942727" style="stroke: #000000"/>
    </g>
    <g clip-path="url(#p8f2ce732e7)">
     <use xlink:href="#C0_0_f1855fff1c" x="1041.108125" y="736.495" style="stroke: #000000"/>
    </g>
    <g clip-path="url(#p8f2ce732e7)">
     <use xlink:href="#C0_0_f1855fff1c" x="1041.108125" y="691.047273" style="fill-opacity: 0.180392"/>
    </g>
    <g clip-path="url(#p8f2ce732e7)">
     <use xlink:href="#C0_0_f1855fff1c" x="1041.108125" y="645.599545" style="fill-opacity: 0.180392"/>
    </g>
    <g clip-path="url(#p8f2ce732e7)">
     <use xlink:href="#C0_0_f1855fff1c" x="1171.471875" y="827.390455" style="fill-opacity: 0.180392"/>
    </g>
    <g clip-path="url(#p8f2ce732e7)">
     <use xlink:href="#C0_0_f1855fff1c" x="1171.471875" y="781.942727" style="stroke: #000000"/>
    </g>
    <g clip-path="url(#p8f2ce732e7)">
     <use xlink:href="#C0_0_f1855fff1c" x="1171.471875" y="736.495" style="stroke: #000000"/>
    </g>
    <g clip-path="url(#p8f2ce732e7)">
     <use xlink:href="#C0_0_f1855fff1c" x="1171.471875" y="691.047273" style="stroke: #000000"/>
    </g>
    <g clip-path="url(#p8f2ce732e7)">
     <use xlink:href="#C0_0_f1855fff1c" x="1171.471875" y="645.599545" style="fill-opacity: 0.180392"/>
    </g>
    <g clip-path="url(#p8f2ce732e7)">
     <use xlink:href="#C0_0_f1855fff1c" x="1301.835625" y="827.390455" style="fill-opacity: 0.180392"/>
    </g>
    <g clip-path="url(#p8f2ce732e7)">
     <use xlink:href="#C0_0_f1855fff1c" x="1301.835625" y="781.942727" style="fill-opacity: 0.180392"/>
    </g>
    <g clip-path="url(#p8f2ce732e7)">
     <use xlink:href="#C0_0_f1855fff1c" x="1301.835625" y="736.495" style="stroke: #000000"/>
    </g>
    <g clip-path="url(#p8f2ce732e7)">
     <use xlink:href="#C0_0_f1855fff1c" x="1301.835625" y="691.047273" style="stroke: #000000"/>
    </g>
    <g clip-path="url(#p8f2ce732e7)">
     <use xlink:href="#C0_0_f1855fff1c" x="1301.835625" y="645.599545" style="stroke: #000000"/>
    </g>
    <g clip-path="url(#p8f2ce732e7)">
     <use xlink:href="#C0_0_f1855fff1c" x="1432.199375" y="827.390455" style="stroke: #000000"/>
    </g>
    <g clip-path="url(#p8f2ce732e7)">
     <use xlink:href="#C0_0_f1855fff1c" x="1432.199375" y="781.942727" style="stroke: #000000"/>
    </g>
    <g clip-path="url(#p8f2ce732e7)">
     <use xlink:href="#C0_0_f1855fff1c" x="1432.199375" y="736.495" style="fill-opacity: 0.180392"/>
    </g>
    <g clip-path="url(#p8f2ce732e7)">
     <use xlink:href="#C0_0_f1855fff1c" x="1432.199375" y="691.047273" style="stroke: #000000"/>
    </g>
    <g clip-path="url(#p8f2ce732e7)">
     <use xlink:href="#C0_0_f1855fff1c" x="1432.199375" y="645.599545" style="fill-opacity: 0.180392"/>
    </g>
    <g clip-path="url(#p8f2ce732e7)">
     <use xlink:href="#C0_0_f1855fff1c" x="1562.563125" y="827.390455" style="stroke: #000000"/>
    </g>
    <g clip-path="url(#p8f2ce732e7)">
     <use xlink:href="#C0_0_f1855fff1c" x="1562.563125" y="781.942727" style="stroke: #000000"/>
    </g>
    <g clip-path="url(#p8f2ce732e7)">
     <use xlink:href="#C0_0_f1855fff1c" x="1562.563125" y="736.495" style="stroke: #000000"/>
    </g>
    <g clip-path="url(#p8f2ce732e7)">
     <use xlink:href="#C0_0_f1855fff1c" x="1562.563125" y="691.047273" style="fill-opacity: 0.180392"/>
    </g>
    <g clip-path="url(#p8f2ce732e7)">
     <use xlink:href="#C0_0_f1855fff1c" x="1562.563125" y="645.599545" style="fill-opacity: 0.180392"/>
    </g>
    <g clip-path="url(#p8f2ce732e7)">
     <use xlink:href="#C0_0_f1855fff1c" x="1692.926875" y="827.390455" style="stroke: #000000"/>
    </g>
    <g clip-path="url(#p8f2ce732e7)">
     <use xlink:href="#C0_0_f1855fff1c" x="1692.926875" y="781.942727" style="stroke: #000000"/>
    </g>
    <g clip-path="url(#p8f2ce732e7)">
     <use xlink:href="#C0_0_f1855fff1c" x="1692.926875" y="736.495" style="stroke: #000000"/>
    </g>
    <g clip-path="url(#p8f2ce732e7)">
     <use xlink:href="#C0_0_f1855fff1c" x="1692.926875" y="691.047273" style="stroke: #000000"/>
    </g>
    <g clip-path="url(#p8f2ce732e7)">
     <use xlink:href="#C0_0_f1855fff1c" x="1692.926875" y="645.599545" style="fill-opacity: 0.180392"/>
    </g>
    <g clip-path="url(#p8f2ce732e7)">
     <use xlink:href="#C0_0_f1855fff1c" x="1823.290625" y="827.390455" style="stroke: #000000"/>
    </g>
    <g clip-path="url(#p8f2ce732e7)">
     <use xlink:href="#C0_0_f1855fff1c" x="1823.290625" y="781.942727" style="fill-opacity: 0.180392"/>
    </g>
    <g clip-path="url(#p8f2ce732e7)">
     <use xlink:href="#C0_0_f1855fff1c" x="1823.290625" y="736.495" style="stroke: #000000"/>
    </g>
    <g clip-path="url(#p8f2ce732e7)">
     <use xlink:href="#C0_0_f1855fff1c" x="1823.290625" y="691.047273" style="fill-opacity: 0.180392"/>
    </g>
    <g clip-path="url(#p8f2ce732e7)">
     <use xlink:href="#C0_0_f1855fff1c" x="1823.290625" y="645.599545" style="fill-opacity: 0.180392"/>
    </g>
    <g clip-path="url(#p8f2ce732e7)">
     <use xlink:href="#C0_0_f1855fff1c" x="1953.654375" y="827.390455" style="fill-opacity: 0.180392"/>
    </g>
    <g clip-path="url(#p8f2ce732e7)">
     <use xlink:href="#C0_0_f1855fff1c" x="1953.654375" y="781.942727" style="fill-opacity: 0.180392"/>
    </g>
    <g clip-path="url(#p8f2ce732e7)">
     <use xlink:href="#C0_0_f1855fff1c" x="1953.654375" y="736.495" style="stroke: #000000"/>
    </g>
    <g clip-path="url(#p8f2ce732e7)">
     <use xlink:href="#C0_0_f1855fff1c" x="1953.654375" y="691.047273" style="stroke: #000000"/>
    </g>
    <g clip-path="url(#p8f2ce732e7)">
     <use xlink:href="#C0_0_f1855fff1c" x="1953.654375" y="645.599545" style="fill-opacity: 0.180392"/>
    </g>
    <g clip-path="url(#p8f2ce732e7)">
     <use xlink:href="#C0_0_f1855fff1c" x="2084.018125" y="827.390455" style="fill-opacity: 0.180392"/>
    </g>
    <g clip-path="url(#p8f2ce732e7)">
     <use xlink:href="#C0_0_f1855fff1c" x="2084.018125" y="781.942727" style="stroke: #000000"/>
    </g>
    <g clip-path="url(#p8f2ce732e7)">
     <use xlink:href="#C0_0_f1855fff1c" x="2084.018125" y="736.495" style="fill-opacity: 0.180392"/>
    </g>
    <g clip-path="url(#p8f2ce732e7)">
     <use xlink:href="#C0_0_f1855fff1c" x="2084.018125" y="691.047273" style="stroke: #000000"/>
    </g>
    <g clip-path="url(#p8f2ce732e7)">
     <use xlink:href="#C0_0_f1855fff1c" x="2084.018125" y="645.599545" style="fill-opacity: 0.180392"/>
    </g>
   </g>
  </g>
 </g>
 <defs>
  <clipPath id="p3e46dd7624">
   <rect x="584.835" y="10.8" width="1564.365" height="599.91"/>
  </clipPath>
  <clipPath id="pb4f7f0e9a1">
   <rect x="17.145" y="636.51" width="521.455" height="199.97"/>
  </clipPath>
  <clipPath id="p8f2ce732e7">
   <rect x="584.835" y="636.51" width="1564.365" height="199.97"/>
  </clipPath>
 </defs>
</svg>
