<?xml version="1.0" encoding="utf-8" standalone="no"?>
<!DOCTYPE svg PUBLIC "-//W3C//DTD SVG 1.1//EN"
  "http://www.w3.org/Graphics/SVG/1.1/DTD/svg11.dtd">
<svg xmlns:xlink="http://www.w3.org/1999/xlink" width="864pt" height="432pt" viewBox="0 0 864 432" xmlns="http://www.w3.org/2000/svg" version="1.1">
 <metadata>
  <rdf:RDF xmlns:dc="http://purl.org/dc/elements/1.1/" xmlns:cc="http://creativecommons.org/ns#" xmlns:rdf="http://www.w3.org/1999/02/22-rdf-syntax-ns#">
   <cc:Work>
    <dc:type rdf:resource="http://purl.org/dc/dcmitype/StillImage"/>
    <dc:date>2025-12-01T15:50:03.920202</dc:date>
    <dc:format>image/svg+xml</dc:format>
    <dc:creator>
     <cc:Agent>
      <dc:title>Matplotlib v3.9.4, https://matplotlib.org/</dc:title>
     </cc:Agent>
    </dc:creator>
   </cc:Work>
  </rdf:RDF>
 </metadata>
 <defs>
  <style type="text/css">*{stroke-linejoin: round; stroke-linecap: butt}</style>
 </defs>
 <g id="figure_1">
  <g id="patch_1">
   <path d="M 0 432 
L 864 432 
L 864 0 
L 0 0 
z
" style="fill: #ffffff"/>
  </g>
  <g id="axes_1">
   <g id="patch_2">
    <path d="M 45.74 390.04 
L 853.2 390.04 
L 853.2 25.44 
L 45.74 25.44 
z
" style="fill: #ffffff"/>
   </g>
   <g id="matplotlib.axis_1">
    <g id="xtick_1">
     <g id="line2d_1">
      <defs>
       <path id="mf7bc8b1d28" d="M 0 0 
L 0 3.5 
" style="stroke: #000000; stroke-width: 0.8"/>
      </defs>
      <g>
       <use xlink:href="#mf7bc8b1d28" x="82.442727" y="390.04" style="stroke: #000000; stroke-width: 0.8"/>
      </g>
     </g>
     <g id="text_1">
      <text style="font: 10px 'Helvetica', 'Arial'; text-anchor: middle" x="82.442727" y="404.213437" transform="rotate(-0 82.442727 404.213437)">LM</text>
     </g>
    </g>
    <g id="xtick_2">
     <g id="line2d_2">
      <g>
       <use xlink:href="#mf7bc8b1d28" x="265.956364" y="390.04" style="stroke: #000000; stroke-width: 0.8"/>
      </g>
     </g>
     <g id="text_2">
      <text style="font: 10px 'Helvetica', 'Arial'; text-anchor: middle" x="265.956364" y="404.213437" transform="rotate(-0 265.956364 404.213437)">AL</text>
     </g>
    </g>
    <g id="xtick_3">
     <g id="line2d_3">
      <g>
       <use xlink:href="#mf7bc8b1d28" x="449.47" y="390.04" style="stroke: #000000; stroke-width: 0.8"/>
      </g>
     </g>
     <g id="text_3">
      <text style="font: 10px 'Helvetica', 'Arial'; text-anchor: middle" x="449.47" y="404.213437" transform="rotate(-0 449.47 404.213437)">AM</text>
     </g>
    </g>
    <g id="xtick_4">
     <g id="line2d_4">
      <g>
       <use xlink:href="#mf7bc8b1d28" x="632.983636" y="390.04" style="stroke: #000000; stroke-width: 0.8"/>
      </g>
     </g>
     <g id="text_4">
      <text style="font: 10px 'Helvetica', 'Arial'; text-anchor: middle" x="632.983636" y="404.213437" transform="rotate(-0 632.983636 404.213437)">PM</text>
     </g>
    </g>
    <g id="xtick_5">
     <g id="line2d_5">
      <g>
       <use xlink:href="#mf7bc8b1d28" x="816.497273" y="390.04" style="stroke: #000000; stroke-width: 0.8"/>
      </g>
     </g>
     <g id="text_5">
      <text style="font: 10px 'Helvetica', 'Arial'; text-anchor: middle" x="816.497273" y="404.213437" transform="rotate(-0 816.497273 404.213437)">RSP</text>
     </g>
    </g>
    <g id="text_6">
     <text style="font: 10px 'Helvetica', 'Arial'; text-anchor: middle" x="449.47" y="417.47125" transform="rotate(-0 449.47 417.47125)">Region</text>
    </g>
   </g>
   <g id="matplotlib.axis_2">
    <g id="ytick_1">
     <g id="line2d_6">
      <defs>
       <path id="mcbf4d20045" d="M 0 0 
L -3.5 0 
" style="stroke: #000000; stroke-width: 0.8"/>
      </defs>
      <g>
       <use xlink:href="#mcbf4d20045" x="45.74" y="373.467273" style="stroke: #000000; stroke-width: 0.8"/>
      </g>
     </g>
     <g id="text_7">
      <text style="font: 10px 'Helvetica', 'Arial'; text-anchor: end" x="38.74" y="377.053991" transform="rotate(-0 38.74 377.053991)">0.0</text>
     </g>
    </g>
    <g id="ytick_2">
     <g id="line2d_7">
      <g>
       <use xlink:href="#mcbf4d20045" x="45.74" y="307.176364" style="stroke: #000000; stroke-width: 0.8"/>
      </g>
     </g>
     <g id="text_8">
      <text style="font: 10px 'Helvetica', 'Arial'; text-anchor: end" x="38.74" y="310.763082" transform="rotate(-0 38.74 310.763082)">0.2</text>
     </g>
    </g>
    <g id="ytick_3">
     <g id="line2d_8">
      <g>
       <use xlink:href="#mcbf4d20045" x="45.74" y="240.885455" style="stroke: #000000; stroke-width: 0.8"/>
      </g>
     </g>
     <g id="text_9">
      <text style="font: 10px 'Helvetica', 'Arial'; text-anchor: end" x="38.74" y="244.472173" transform="rotate(-0 38.74 244.472173)">0.4</text>
     </g>
    </g>
    <g id="ytick_4">
     <g id="line2d_9">
      <g>
       <use xlink:href="#mcbf4d20045" x="45.74" y="174.594545" style="stroke: #000000; stroke-width: 0.8"/>
      </g>
     </g>
     <g id="text_10">
      <text style="font: 10px 'Helvetica', 'Arial'; text-anchor: end" x="38.74" y="178.181264" transform="rotate(-0 38.74 178.181264)">0.6</text>
     </g>
    </g>
    <g id="ytick_5">
     <g id="line2d_10">
      <g>
       <use xlink:href="#mcbf4d20045" x="45.74" y="108.303636" style="stroke: #000000; stroke-width: 0.8"/>
      </g>
     </g>
     <g id="text_11">
      <text style="font: 10px 'Helvetica', 'Arial'; text-anchor: end" x="38.74" y="111.890355" transform="rotate(-0 38.74 111.890355)">0.8</text>
     </g>
    </g>
    <g id="ytick_6">
     <g id="line2d_11">
      <g>
       <use xlink:href="#mcbf4d20045" x="45.74" y="42.012727" style="stroke: #000000; stroke-width: 0.8"/>
      </g>
     </g>
     <g id="text_12">
      <text style="font: 10px 'Helvetica', 'Arial'; text-anchor: end" x="38.74" y="45.599446" transform="rotate(-0 38.74 45.599446)">1.0</text>
     </g>
    </g>
    <g id="text_13">
     <text style="font: 10px 'Helvetica', 'Arial'; text-anchor: middle" x="18.755625" y="207.74" transform="rotate(-90 18.755625 207.74)">Normalized Value (0-1)</text>
    </g>
   </g>
   <g id="line2d_12">
    <path d="M 82.442727 373.467273 
L 265.956364 42.012727 
L 449.47 285.395064 
L 632.983636 259.065441 
L 816.497273 373.467273 
" clip-path="url(#pe3c5f90ad6)" style="fill: none; stroke: #17becf; stroke-opacity: 0.9; stroke-width: 1.5; stroke-linecap: square"/>
   </g>
   <g id="line2d_13">
    <path d="M 82.442727 373.467273 
L 265.956364 217.541074 
L 449.47 42.012727 
L 632.983636 288.491379 
L 816.497273 373.467273 
" clip-path="url(#pe3c5f90ad6)" style="fill: none; stroke: #17becf; stroke-opacity: 0.9; stroke-width: 1.5; stroke-linecap: square"/>
   </g>
   <g id="line2d_14">
    <path d="M 82.442727 373.467273 
L 265.956364 42.012727 
L 449.47 362.337649 
L 632.983636 202.569969 
L 816.497273 373.467273 
" clip-path="url(#pe3c5f90ad6)" style="fill: none; stroke: #8c564b; stroke-opacity: 0.9; stroke-width: 1.5; stroke-linecap: square"/>
   </g>
   <g id="line2d_15">
    <path d="M 82.442727 373.467273 
L 265.956364 42.012727 
L 449.47 260.163404 
L 632.983636 153.381146 
L 816.497273 373.467273 
" clip-path="url(#pe3c5f90ad6)" style="fill: none; stroke: #1f77b4; stroke-opacity: 0.9; stroke-width: 1.5; stroke-linecap: square"/>
   </g>
   <g id="line2d_16">
    <path d="M 82.442727 373.467273 
L 265.956364 42.012727 
L 449.47 234.016361 
L 632.983636 335.805475 
L 816.497273 373.467273 
" clip-path="url(#pe3c5f90ad6)" style="fill: none; stroke: #1f77b4; stroke-opacity: 0.9; stroke-width: 1.5; stroke-linecap: square"/>
   </g>
   <g id="line2d_17">
    <path d="M 82.442727 373.467273 
L 265.956364 293.910804 
L 449.47 239.581983 
L 632.983636 42.012727 
L 816.497273 373.467273 
" clip-path="url(#pe3c5f90ad6)" style="fill: none; stroke: #1f77b4; stroke-opacity: 0.9; stroke-width: 1.5; stroke-linecap: square"/>
   </g>
   <g id="line2d_18">
    <path d="M 82.442727 373.467273 
L 265.956364 149.530549 
L 449.47 130.490262 
L 632.983636 42.012727 
L 816.497273 373.467273 
" clip-path="url(#pe3c5f90ad6)" style="fill: none; stroke: #1f77b4; stroke-opacity: 0.9; stroke-width: 1.5; stroke-linecap: square"/>
   </g>
   <g id="line2d_19">
    <path d="M 82.442727 373.467273 
L 265.956364 252.927172 
L 449.47 317.681736 
L 632.983636 42.012727 
L 816.497273 373.467273 
" clip-path="url(#pe3c5f90ad6)" style="fill: none; stroke: #1f77b4; stroke-opacity: 0.9; stroke-width: 1.5; stroke-linecap: square"/>
   </g>
   <g id="line2d_20">
    <path d="M 82.442727 373.467273 
L 265.956364 42.012727 
L 449.47 79.0709 
L 632.983636 120.296305 
L 816.497273 373.467273 
" clip-path="url(#pe3c5f90ad6)" style="fill: none; stroke: #1f77b4; stroke-opacity: 0.9; stroke-width: 1.5; stroke-linecap: square"/>
   </g>
   <g id="line2d_21">
    <path d="M 82.442727 373.467273 
L 265.956364 42.012727 
L 449.47 326.268503 
L 632.983636 249.183343 
L 816.497273 373.467273 
" clip-path="url(#pe3c5f90ad6)" style="fill: none; stroke: #1f77b4; stroke-opacity: 0.9; stroke-width: 1.5; stroke-linecap: square"/>
   </g>
   <g id="line2d_22">
    <path d="M 82.442727 373.467273 
L 265.956364 196.675123 
L 449.47 224.705839 
L 632.983636 42.012727 
L 816.497273 373.467273 
" clip-path="url(#pe3c5f90ad6)" style="fill: none; stroke: #1f77b4; stroke-opacity: 0.9; stroke-width: 1.5; stroke-linecap: square"/>
   </g>
   <g id="line2d_23">
    <path d="M 82.442727 373.467273 
L 265.956364 42.012727 
L 449.47 362.74028 
L 632.983636 201.38183 
L 816.497273 373.467273 
" clip-path="url(#pe3c5f90ad6)" style="fill: none; stroke: #1f77b4; stroke-opacity: 0.9; stroke-width: 1.5; stroke-linecap: square"/>
   </g>
   <g id="line2d_24">
    <path d="M 82.442727 373.467273 
L 265.956364 132.387067 
L 449.47 302.467498 
L 632.983636 42.012727 
L 816.497273 373.467273 
" clip-path="url(#pe3c5f90ad6)" style="fill: none; stroke: #1f77b4; stroke-opacity: 0.9; stroke-width: 1.5; stroke-linecap: square"/>
   </g>
   <g id="line2d_25">
    <path d="M 82.442727 373.467273 
L 265.956364 42.012727 
L 449.47 270.170299 
L 632.983636 291.634231 
L 816.497273 373.467273 
" clip-path="url(#pe3c5f90ad6)" style="fill: none; stroke: #1f77b4; stroke-opacity: 0.9; stroke-width: 1.5; stroke-linecap: square"/>
   </g>
   <g id="line2d_26">
    <path d="M 82.442727 373.467273 
L 265.956364 112.790972 
L 449.47 245.507322 
L 632.983636 165.133768 
L 816.497273 373.467273 
" clip-path="url(#pe3c5f90ad6)" style="fill: none; stroke: #000000; stroke-width: 2; stroke-linecap: square"/>
    <defs>
     <path id="m893163da9f" d="M 0 3 
C 0.795609 3 1.55874 2.683901 2.12132 2.12132 
C 2.683901 1.55874 3 0.795609 3 0 
C 3 -0.795609 2.683901 -1.55874 2.12132 -2.12132 
C 1.55874 -2.683901 0.795609 -3 0 -3 
C -0.795609 -3 -1.55874 -2.683901 -2.12132 -2.12132 
C -2.683901 -1.55874 -3 -0.795609 -3 0 
C -3 0.795609 -2.683901 1.55874 -2.12132 2.12132 
C -1.55874 2.683901 -0.795609 3 0 3 
z
" style="stroke: #000000"/>
    </defs>
    <g clip-path="url(#pe3c5f90ad6)">
     <use xlink:href="#m893163da9f" x="82.442727" y="373.467273" style="stroke: #000000"/>
     <use xlink:href="#m893163da9f" x="265.956364" y="112.790972" style="stroke: #000000"/>
     <use xlink:href="#m893163da9f" x="449.47" y="245.507322" style="stroke: #000000"/>
     <use xlink:href="#m893163da9f" x="632.983636" y="165.133768" style="stroke: #000000"/>
     <use xlink:href="#m893163da9f" x="816.497273" y="373.467273" style="stroke: #000000"/>
    </g>
   </g>
   <g id="patch_3">
    <path d="M 45.74 390.04 
L 45.74 25.44 
" style="fill: none; stroke: #000000; stroke-width: 0.8; stroke-linejoin: miter; stroke-linecap: square"/>
   </g>
   <g id="patch_4">
    <path d="M 853.2 390.04 
L 853.2 25.44 
" style="fill: none; stroke: #000000; stroke-width: 0.8; stroke-linejoin: miter; stroke-linecap: square"/>
   </g>
   <g id="patch_5">
    <path d="M 45.74 390.04 
L 853.2 390.04 
" style="fill: none; stroke: #000000; stroke-width: 0.8; stroke-linejoin: miter; stroke-linecap: square"/>
   </g>
   <g id="patch_6">
    <path d="M 45.74 25.44 
L 853.2 25.44 
" style="fill: none; stroke: #000000; stroke-width: 0.8; stroke-linejoin: miter; stroke-linecap: square"/>
   </g>
   <g id="text_14">
    <text style="font: 12px 'Helvetica', 'Arial'; text-anchor: middle" x="449.47" y="19.44" transform="rotate(-0 449.47 19.44)">Normalized Regional Data: pm_am_al (P60)</text>
   </g>
   <g id="legend_1">
    <g id="patch_7">
     <path d="M 786.404688 104.999375 
L 846.2 104.999375 
Q 848.2 104.999375 848.2 102.999375 
L 848.2 32.44 
Q 848.2 30.44 846.2 30.44 
L 786.404688 30.44 
Q 784.404688 30.44 784.404688 32.44 
L 784.404688 102.999375 
Q 784.404688 104.999375 786.404688 104.999375 
z
" style="fill: #ffffff; opacity: 0.8; stroke: #cccccc; stroke-linejoin: miter"/>
    </g>
    <g id="text_15">
     <text style="font: 10px 'Helvetica', 'Arial'; text-anchor: start" x="792.960938" y="41.80875" transform="rotate(-0 792.960938 41.80875)">Sample ID</text>
    </g>
    <g id="line2d_27">
     <path d="M 788.404688 52.566562 
L 798.404688 52.566562 
L 808.404688 52.566562 
" style="fill: none; stroke: #1f77b4; stroke-opacity: 0.9; stroke-width: 1.5; stroke-linecap: square"/>
    </g>
    <g id="text_16">
     <text style="font: 10px 'Helvetica', 'Arial'; text-anchor: start" x="816.404688" y="56.066562" transform="rotate(-0 816.404688 56.066562)">jr0547</text>
    </g>
    <g id="line2d_28">
     <path d="M 788.404688 66.849375 
L 798.404688 66.849375 
L 808.404688 66.849375 
" style="fill: none; stroke: #8c564b; stroke-opacity: 0.9; stroke-width: 1.5; stroke-linecap: square"/>
    </g>
    <g id="text_17">
     <text style="font: 10px 'Helvetica', 'Arial'; text-anchor: start" x="816.404688" y="70.349375" transform="rotate(-0 816.404688 70.349375)">jr0552</text>
    </g>
    <g id="line2d_29">
     <path d="M 788.404688 81.132187 
L 798.404688 81.132187 
L 808.404688 81.132187 
" style="fill: none; stroke: #17becf; stroke-opacity: 0.9; stroke-width: 1.5; stroke-linecap: square"/>
    </g>
    <g id="text_18">
     <text style="font: 10px 'Helvetica', 'Arial'; text-anchor: start" x="816.404688" y="84.632187" transform="rotate(-0 816.404688 84.632187)">jr0692</text>
    </g>
    <g id="line2d_30">
     <path d="M 788.404688 95.415 
L 808.404688 95.415 
" style="fill: none; stroke: #000000; stroke-width: 2; stroke-linecap: square"/>
    </g>
    <g id="line2d_31">
     <g>
      <use xlink:href="#m893163da9f" x="798.404688" y="95.415" style="stroke: #000000"/>
     </g>
    </g>
    <g id="text_19">
     <text style="font: 10px 'Helvetica', 'Arial'; text-anchor: start" x="816.404688" y="98.915" transform="rotate(-0 816.404688 98.915)">Mean</text>
    </g>
   </g>
  </g>
 </g>
 <defs>
  <clipPath id="pe3c5f90ad6">
   <rect x="45.74" y="25.44" width="807.46" height="364.6"/>
  </clipPath>
 </defs>
</svg>
