<?xml version="1.0" encoding="utf-8" standalone="no"?>
<!DOCTYPE svg PUBLIC "-//W3C//DTD SVG 1.1//EN"
  "http://www.w3.org/Graphics/SVG/1.1/DTD/svg11.dtd">
<svg xmlns:xlink="http://www.w3.org/1999/xlink" width="864pt" height="432pt" viewBox="0 0 864 432" xmlns="http://www.w3.org/2000/svg" version="1.1">
 <metadata>
  <rdf:RDF xmlns:dc="http://purl.org/dc/elements/1.1/" xmlns:cc="http://creativecommons.org/ns#" xmlns:rdf="http://www.w3.org/1999/02/22-rdf-syntax-ns#">
   <cc:Work>
    <dc:type rdf:resource="http://purl.org/dc/dcmitype/StillImage"/>
    <dc:date>2025-12-01T15:29:58.994349</dc:date>
    <dc:format>image/svg+xml</dc:format>
    <dc:creator>
     <cc:Agent>
      <dc:title>Matplotlib v3.9.4, https://matplotlib.org/</dc:title>
     </cc:Agent>
    </dc:creator>
   </cc:Work>
  </rdf:RDF>
 </metadata>
 <defs>
  <style type="text/css">*{stroke-linejoin: round; stroke-linecap: butt}</style>
 </defs>
 <g id="figure_1">
  <g id="patch_1">
   <path d="M 0 432 
L 864 432 
L 864 0 
L 0 0 
z
" style="fill: #ffffff"/>
  </g>
  <g id="axes_1">
   <g id="patch_2">
    <path d="M 45.74 390.04 
L 853.2 390.04 
L 853.2 25.44 
L 45.74 25.44 
z
" style="fill: #ffffff"/>
   </g>
   <g id="matplotlib.axis_1">
    <g id="xtick_1">
     <g id="line2d_1">
      <defs>
       <path id="ma8ceaf1261" d="M 0 0 
L 0 3.5 
" style="stroke: #000000; stroke-width: 0.8"/>
      </defs>
      <g>
       <use xlink:href="#ma8ceaf1261" x="82.442727" y="390.04" style="stroke: #000000; stroke-width: 0.8"/>
      </g>
     </g>
     <g id="text_1">
      <text style="font: 10px 'Helvetica', 'Arial'; text-anchor: middle" x="82.442727" y="404.213437" transform="rotate(-0 82.442727 404.213437)">LM</text>
     </g>
    </g>
    <g id="xtick_2">
     <g id="line2d_2">
      <g>
       <use xlink:href="#ma8ceaf1261" x="265.956364" y="390.04" style="stroke: #000000; stroke-width: 0.8"/>
      </g>
     </g>
     <g id="text_2">
      <text style="font: 10px 'Helvetica', 'Arial'; text-anchor: middle" x="265.956364" y="404.213437" transform="rotate(-0 265.956364 404.213437)">AL</text>
     </g>
    </g>
    <g id="xtick_3">
     <g id="line2d_3">
      <g>
       <use xlink:href="#ma8ceaf1261" x="449.47" y="390.04" style="stroke: #000000; stroke-width: 0.8"/>
      </g>
     </g>
     <g id="text_3">
      <text style="font: 10px 'Helvetica', 'Arial'; text-anchor: middle" x="449.47" y="404.213437" transform="rotate(-0 449.47 404.213437)">AM</text>
     </g>
    </g>
    <g id="xtick_4">
     <g id="line2d_4">
      <g>
       <use xlink:href="#ma8ceaf1261" x="632.983636" y="390.04" style="stroke: #000000; stroke-width: 0.8"/>
      </g>
     </g>
     <g id="text_4">
      <text style="font: 10px 'Helvetica', 'Arial'; text-anchor: middle" x="632.983636" y="404.213437" transform="rotate(-0 632.983636 404.213437)">PM</text>
     </g>
    </g>
    <g id="xtick_5">
     <g id="line2d_5">
      <g>
       <use xlink:href="#ma8ceaf1261" x="816.497273" y="390.04" style="stroke: #000000; stroke-width: 0.8"/>
      </g>
     </g>
     <g id="text_5">
      <text style="font: 10px 'Helvetica', 'Arial'; text-anchor: middle" x="816.497273" y="404.213437" transform="rotate(-0 816.497273 404.213437)">RSP</text>
     </g>
    </g>
    <g id="text_6">
     <text style="font: 10px 'Helvetica', 'Arial'; text-anchor: middle" x="449.47" y="417.47125" transform="rotate(-0 449.47 417.47125)">Region</text>
    </g>
   </g>
   <g id="matplotlib.axis_2">
    <g id="ytick_1">
     <g id="line2d_6">
      <defs>
       <path id="meff2554859" d="M 0 0 
L -3.5 0 
" style="stroke: #000000; stroke-width: 0.8"/>
      </defs>
      <g>
       <use xlink:href="#meff2554859" x="45.74" y="373.467273" style="stroke: #000000; stroke-width: 0.8"/>
      </g>
     </g>
     <g id="text_7">
      <text style="font: 10px 'Helvetica', 'Arial'; text-anchor: end" x="38.74" y="377.053991" transform="rotate(-0 38.74 377.053991)">0.0</text>
     </g>
    </g>
    <g id="ytick_2">
     <g id="line2d_7">
      <g>
       <use xlink:href="#meff2554859" x="45.74" y="307.176364" style="stroke: #000000; stroke-width: 0.8"/>
      </g>
     </g>
     <g id="text_8">
      <text style="font: 10px 'Helvetica', 'Arial'; text-anchor: end" x="38.74" y="310.763082" transform="rotate(-0 38.74 310.763082)">0.2</text>
     </g>
    </g>
    <g id="ytick_3">
     <g id="line2d_8">
      <g>
       <use xlink:href="#meff2554859" x="45.74" y="240.885455" style="stroke: #000000; stroke-width: 0.8"/>
      </g>
     </g>
     <g id="text_9">
      <text style="font: 10px 'Helvetica', 'Arial'; text-anchor: end" x="38.74" y="244.472173" transform="rotate(-0 38.74 244.472173)">0.4</text>
     </g>
    </g>
    <g id="ytick_4">
     <g id="line2d_9">
      <g>
       <use xlink:href="#meff2554859" x="45.74" y="174.594545" style="stroke: #000000; stroke-width: 0.8"/>
      </g>
     </g>
     <g id="text_10">
      <text style="font: 10px 'Helvetica', 'Arial'; text-anchor: end" x="38.74" y="178.181264" transform="rotate(-0 38.74 178.181264)">0.6</text>
     </g>
    </g>
    <g id="ytick_5">
     <g id="line2d_10">
      <g>
       <use xlink:href="#meff2554859" x="45.74" y="108.303636" style="stroke: #000000; stroke-width: 0.8"/>
      </g>
     </g>
     <g id="text_11">
      <text style="font: 10px 'Helvetica', 'Arial'; text-anchor: end" x="38.74" y="111.890355" transform="rotate(-0 38.74 111.890355)">0.8</text>
     </g>
    </g>
    <g id="ytick_6">
     <g id="line2d_11">
      <g>
       <use xlink:href="#meff2554859" x="45.74" y="42.012727" style="stroke: #000000; stroke-width: 0.8"/>
      </g>
     </g>
     <g id="text_12">
      <text style="font: 10px 'Helvetica', 'Arial'; text-anchor: end" x="38.74" y="45.599446" transform="rotate(-0 38.74 45.599446)">1.0</text>
     </g>
    </g>
    <g id="text_13">
     <text style="font: 10px 'Helvetica', 'Arial'; text-anchor: middle" x="18.755625" y="207.74" transform="rotate(-90 18.755625 207.74)">Normalized Value (0-1)</text>
    </g>
   </g>
   <g id="line2d_12">
    <path d="M 82.442727 286.206318 
L 265.956364 373.467273 
L 449.47 42.012727 
L 632.983636 229.367356 
L 816.497273 176.419269 
" clip-path="url(#pfebcb82e5c)" style="fill: none; stroke: #d62728; stroke-opacity: 0.9; stroke-width: 1.5; stroke-linecap: square"/>
   </g>
   <g id="line2d_13">
    <path d="M 82.442727 161.882916 
L 265.956364 373.467273 
L 449.47 42.012727 
L 632.983636 151.119552 
L 816.497273 158.462474 
" clip-path="url(#pfebcb82e5c)" style="fill: none; stroke: #d62728; stroke-opacity: 0.9; stroke-width: 1.5; stroke-linecap: square"/>
   </g>
   <g id="line2d_14">
    <path d="M 82.442727 47.305112 
L 265.956364 373.467273 
L 449.47 289.788964 
L 632.983636 42.012727 
L 816.497273 220.497344 
" clip-path="url(#pfebcb82e5c)" style="fill: none; stroke: #d62728; stroke-opacity: 0.9; stroke-width: 1.5; stroke-linecap: square"/>
   </g>
   <g id="line2d_15">
    <path d="M 82.442727 323.288478 
L 265.956364 373.467273 
L 449.47 364.501739 
L 632.983636 42.012727 
L 816.497273 340.688003 
" clip-path="url(#pfebcb82e5c)" style="fill: none; stroke: #d62728; stroke-opacity: 0.9; stroke-width: 1.5; stroke-linecap: square"/>
   </g>
   <g id="line2d_16">
    <path d="M 82.442727 357.495244 
L 265.956364 373.467273 
L 449.47 261.008365 
L 632.983636 42.012727 
L 816.497273 369.860553 
" clip-path="url(#pfebcb82e5c)" style="fill: none; stroke: #d62728; stroke-opacity: 0.9; stroke-width: 1.5; stroke-linecap: square"/>
   </g>
   <g id="line2d_17">
    <path d="M 82.442727 124.962771 
L 265.956364 373.467273 
L 449.47 350.090476 
L 632.983636 42.012727 
L 816.497273 355.337505 
" clip-path="url(#pfebcb82e5c)" style="fill: none; stroke: #d62728; stroke-opacity: 0.9; stroke-width: 1.5; stroke-linecap: square"/>
   </g>
   <g id="line2d_18">
    <path d="M 82.442727 304.582775 
L 265.956364 373.467273 
L 449.47 288.963735 
L 632.983636 42.012727 
L 816.497273 328.411042 
" clip-path="url(#pfebcb82e5c)" style="fill: none; stroke: #d62728; stroke-opacity: 0.9; stroke-width: 1.5; stroke-linecap: square"/>
   </g>
   <g id="line2d_19">
    <path d="M 82.442727 72.049397 
L 265.956364 373.467273 
L 449.47 42.012727 
L 632.983636 54.256927 
L 816.497273 329.077339 
" clip-path="url(#pfebcb82e5c)" style="fill: none; stroke: #d62728; stroke-opacity: 0.9; stroke-width: 1.5; stroke-linecap: square"/>
   </g>
   <g id="line2d_20">
    <path d="M 82.442727 42.012727 
L 265.956364 373.467273 
L 449.47 354.639332 
L 632.983636 339.507395 
L 816.497273 321.01954 
" clip-path="url(#pfebcb82e5c)" style="fill: none; stroke: #d62728; stroke-opacity: 0.9; stroke-width: 1.5; stroke-linecap: square"/>
   </g>
   <g id="line2d_21">
    <path d="M 82.442727 42.012727 
L 265.956364 373.467273 
L 449.47 327.862107 
L 632.983636 205.467743 
L 816.497273 305.660078 
" clip-path="url(#pfebcb82e5c)" style="fill: none; stroke: #d62728; stroke-opacity: 0.9; stroke-width: 1.5; stroke-linecap: square"/>
   </g>
   <g id="line2d_22">
    <path d="M 82.442727 42.012727 
L 265.956364 373.467273 
L 449.47 310.297605 
L 632.983636 308.306163 
L 816.497273 354.220828 
" clip-path="url(#pfebcb82e5c)" style="fill: none; stroke: #d62728; stroke-opacity: 0.9; stroke-width: 1.5; stroke-linecap: square"/>
   </g>
   <g id="line2d_23">
    <path d="M 82.442727 351.62476 
L 265.956364 373.467273 
L 449.47 303.046297 
L 632.983636 322.969245 
L 816.497273 42.012727 
" clip-path="url(#pfebcb82e5c)" style="fill: none; stroke: #d62728; stroke-opacity: 0.9; stroke-width: 1.5; stroke-linecap: square"/>
   </g>
   <g id="line2d_24">
    <path d="M 82.442727 288.056561 
L 265.956364 373.467273 
L 449.47 306.999397 
L 632.983636 42.012727 
L 816.497273 332.964598 
" clip-path="url(#pfebcb82e5c)" style="fill: none; stroke: #d62728; stroke-opacity: 0.9; stroke-width: 1.5; stroke-linecap: square"/>
   </g>
   <g id="line2d_25">
    <path d="M 82.442727 132.114552 
L 265.956364 373.467273 
L 449.47 42.012727 
L 632.983636 226.937098 
L 816.497273 181.110889 
" clip-path="url(#pfebcb82e5c)" style="fill: none; stroke: #d62728; stroke-opacity: 0.9; stroke-width: 1.5; stroke-linecap: square"/>
   </g>
   <g id="line2d_26">
    <path d="M 82.442727 108.523242 
L 265.956364 373.467273 
L 449.47 190.490708 
L 632.983636 42.012727 
L 816.497273 291.883309 
" clip-path="url(#pfebcb82e5c)" style="fill: none; stroke: #d62728; stroke-opacity: 0.9; stroke-width: 1.5; stroke-linecap: square"/>
   </g>
   <g id="line2d_27">
    <path d="M 82.442727 178.486816 
L 265.956364 373.467273 
L 449.47 112.072182 
L 632.983636 42.012727 
L 816.497273 319.077965 
" clip-path="url(#pfebcb82e5c)" style="fill: none; stroke: #d62728; stroke-opacity: 0.9; stroke-width: 1.5; stroke-linecap: square"/>
   </g>
   <g id="line2d_28">
    <path d="M 82.442727 170.373104 
L 265.956364 373.467273 
L 449.47 86.102045 
L 632.983636 106.68523 
L 816.497273 42.012727 
" clip-path="url(#pfebcb82e5c)" style="fill: none; stroke: #d62728; stroke-opacity: 0.9; stroke-width: 1.5; stroke-linecap: square"/>
   </g>
   <g id="line2d_29">
    <path d="M 82.442727 343.170643 
L 265.956364 373.467273 
L 449.47 171.376268 
L 632.983636 42.012727 
L 816.497273 281.10807 
" clip-path="url(#pfebcb82e5c)" style="fill: none; stroke: #d62728; stroke-opacity: 0.9; stroke-width: 1.5; stroke-linecap: square"/>
   </g>
   <g id="line2d_30">
    <path d="M 82.442727 53.510438 
L 265.956364 373.467273 
L 449.47 42.012727 
L 632.983636 271.396498 
L 816.497273 338.983872 
" clip-path="url(#pfebcb82e5c)" style="fill: none; stroke: #d62728; stroke-opacity: 0.9; stroke-width: 1.5; stroke-linecap: square"/>
   </g>
   <g id="line2d_31">
    <path d="M 82.442727 369.861611 
L 265.956364 373.467273 
L 449.47 299.309254 
L 632.983636 42.012727 
L 816.497273 368.582004 
" clip-path="url(#pfebcb82e5c)" style="fill: none; stroke: #d62728; stroke-opacity: 0.9; stroke-width: 1.5; stroke-linecap: square"/>
   </g>
   <g id="line2d_32">
    <path d="M 82.442727 230.969147 
L 265.956364 373.467273 
L 449.47 241.392043 
L 632.983636 42.012727 
L 816.497273 102.412211 
" clip-path="url(#pfebcb82e5c)" style="fill: none; stroke: #e377c2; stroke-opacity: 0.9; stroke-width: 1.5; stroke-linecap: square"/>
   </g>
   <g id="line2d_33">
    <path d="M 82.442727 42.012727 
L 265.956364 373.467273 
L 449.47 201.645098 
L 632.983636 111.941095 
L 816.497273 52.298574 
" clip-path="url(#pfebcb82e5c)" style="fill: none; stroke: #1f77b4; stroke-opacity: 0.9; stroke-width: 1.5; stroke-linecap: square"/>
   </g>
   <g id="line2d_34">
    <path d="M 82.442727 191.799284 
L 265.956364 373.467273 
L 449.47 277.222932 
L 632.983636 42.012727 
L 816.497273 210.573482 
" clip-path="url(#pfebcb82e5c)" style="fill: none; stroke: #1f77b4; stroke-opacity: 0.9; stroke-width: 1.5; stroke-linecap: square"/>
   </g>
   <g id="line2d_35">
    <path d="M 82.442727 106.082576 
L 265.956364 373.467273 
L 449.47 42.012727 
L 632.983636 279.97612 
L 816.497273 336.160294 
" clip-path="url(#pfebcb82e5c)" style="fill: none; stroke: #17becf; stroke-opacity: 0.9; stroke-width: 1.5; stroke-linecap: square"/>
   </g>
   <g id="line2d_36">
    <path d="M 82.442727 182.09986 
L 265.956364 373.467273 
L 449.47 207.870205 
L 632.983636 129.670131 
L 816.497273 256.618112 
" clip-path="url(#pfebcb82e5c)" style="fill: none; stroke: #000000; stroke-width: 2; stroke-linecap: square"/>
    <defs>
     <path id="m77a31413ab" d="M 0 3 
C 0.795609 3 1.55874 2.683901 2.12132 2.12132 
C 2.683901 1.55874 3 0.795609 3 0 
C 3 -0.795609 2.683901 -1.55874 2.12132 -2.12132 
C 1.55874 -2.683901 0.795609 -3 0 -3 
C -0.795609 -3 -1.55874 -2.683901 -2.12132 -2.12132 
C -2.683901 -1.55874 -3 -0.795609 -3 0 
C -3 0.795609 -2.683901 1.55874 -2.12132 2.12132 
C -1.55874 2.683901 -0.795609 3 0 3 
z
" style="stroke: #000000"/>
    </defs>
    <g clip-path="url(#pfebcb82e5c)">
     <use xlink:href="#m77a31413ab" x="82.442727" y="182.09986" style="stroke: #000000"/>
     <use xlink:href="#m77a31413ab" x="265.956364" y="373.467273" style="stroke: #000000"/>
     <use xlink:href="#m77a31413ab" x="449.47" y="207.870205" style="stroke: #000000"/>
     <use xlink:href="#m77a31413ab" x="632.983636" y="129.670131" style="stroke: #000000"/>
     <use xlink:href="#m77a31413ab" x="816.497273" y="256.618112" style="stroke: #000000"/>
    </g>
   </g>
   <g id="patch_3">
    <path d="M 45.74 390.04 
L 45.74 25.44 
" style="fill: none; stroke: #000000; stroke-width: 0.8; stroke-linejoin: miter; stroke-linecap: square"/>
   </g>
   <g id="patch_4">
    <path d="M 853.2 390.04 
L 853.2 25.44 
" style="fill: none; stroke: #000000; stroke-width: 0.8; stroke-linejoin: miter; stroke-linecap: square"/>
   </g>
   <g id="patch_5">
    <path d="M 45.74 390.04 
L 853.2 390.04 
" style="fill: none; stroke: #000000; stroke-width: 0.8; stroke-linejoin: miter; stroke-linecap: square"/>
   </g>
   <g id="patch_6">
    <path d="M 45.74 25.44 
L 853.2 25.44 
" style="fill: none; stroke: #000000; stroke-width: 0.8; stroke-linejoin: miter; stroke-linecap: square"/>
   </g>
   <g id="text_14">
    <text style="font: 12px 'Helvetica', 'Arial'; text-anchor: middle" x="449.47" y="19.44" transform="rotate(-0 449.47 19.44)">Normalized Regional Data: rsp_pm_am_lm (P60)</text>
   </g>
   <g id="legend_1">
    <g id="patch_7">
     <path d="M 786.404688 119.282187 
L 846.2 119.282187 
Q 848.2 119.282187 848.2 117.282187 
L 848.2 32.44 
Q 848.2 30.44 846.2 30.44 
L 786.404688 30.44 
Q 784.404688 30.44 784.404688 32.44 
L 784.404688 117.282187 
Q 784.404688 119.282187 786.404688 119.282187 
z
" style="fill: #ffffff; opacity: 0.8; stroke: #cccccc; stroke-linejoin: miter"/>
    </g>
    <g id="text_15">
     <text style="font: 10px 'Helvetica', 'Arial'; text-anchor: start" x="792.960938" y="41.80875" transform="rotate(-0 792.960938 41.80875)">Sample ID</text>
    </g>
    <g id="line2d_37">
     <path d="M 788.404688 52.566562 
L 798.404688 52.566562 
L 808.404688 52.566562 
" style="fill: none; stroke: #1f77b4; stroke-opacity: 0.9; stroke-width: 1.5; stroke-linecap: square"/>
    </g>
    <g id="text_16">
     <text style="font: 10px 'Helvetica', 'Arial'; text-anchor: start" x="816.404688" y="56.066562" transform="rotate(-0 816.404688 56.066562)">jr0448</text>
    </g>
    <g id="line2d_38">
     <path d="M 788.404688 66.849375 
L 798.404688 66.849375 
L 808.404688 66.849375 
" style="fill: none; stroke: #d62728; stroke-opacity: 0.9; stroke-width: 1.5; stroke-linecap: square"/>
    </g>
    <g id="text_17">
     <text style="font: 10px 'Helvetica', 'Arial'; text-anchor: start" x="816.404688" y="70.349375" transform="rotate(-0 816.404688 70.349375)">jr0547</text>
    </g>
    <g id="line2d_39">
     <path d="M 788.404688 81.132187 
L 798.404688 81.132187 
L 808.404688 81.132187 
" style="fill: none; stroke: #e377c2; stroke-opacity: 0.9; stroke-width: 1.5; stroke-linecap: square"/>
    </g>
    <g id="text_18">
     <text style="font: 10px 'Helvetica', 'Arial'; text-anchor: start" x="816.404688" y="84.632187" transform="rotate(-0 816.404688 84.632187)">jr0694</text>
    </g>
    <g id="line2d_40">
     <path d="M 788.404688 95.415 
L 798.404688 95.415 
L 808.404688 95.415 
" style="fill: none; stroke: #17becf; stroke-opacity: 0.9; stroke-width: 1.5; stroke-linecap: square"/>
    </g>
    <g id="text_19">
     <text style="font: 10px 'Helvetica', 'Arial'; text-anchor: start" x="816.404688" y="98.915" transform="rotate(-0 816.404688 98.915)">jr0695</text>
    </g>
    <g id="line2d_41">
     <path d="M 788.404688 109.697812 
L 808.404688 109.697812 
" style="fill: none; stroke: #000000; stroke-width: 2; stroke-linecap: square"/>
    </g>
    <g id="line2d_42">
     <g>
      <use xlink:href="#m77a31413ab" x="798.404688" y="109.697812" style="stroke: #000000"/>
     </g>
    </g>
    <g id="text_20">
     <text style="font: 10px 'Helvetica', 'Arial'; text-anchor: start" x="816.404688" y="113.197812" transform="rotate(-0 816.404688 113.197812)">Mean</text>
    </g>
   </g>
  </g>
 </g>
 <defs>
  <clipPath id="pfebcb82e5c">
   <rect x="45.74" y="25.44" width="807.46" height="364.6"/>
  </clipPath>
 </defs>
</svg>
