<?xml version="1.0" encoding="utf-8" standalone="no"?>
<!DOCTYPE svg PUBLIC "-//W3C//DTD SVG 1.1//EN"
  "http://www.w3.org/Graphics/SVG/1.1/DTD/svg11.dtd">
<svg xmlns:xlink="http://www.w3.org/1999/xlink" width="864pt" height="432pt" viewBox="0 0 864 432" xmlns="http://www.w3.org/2000/svg" version="1.1">
 <metadata>
  <rdf:RDF xmlns:dc="http://purl.org/dc/elements/1.1/" xmlns:cc="http://creativecommons.org/ns#" xmlns:rdf="http://www.w3.org/1999/02/22-rdf-syntax-ns#">
   <cc:Work>
    <dc:type rdf:resource="http://purl.org/dc/dcmitype/StillImage"/>
    <dc:date>2025-12-01T15:50:06.015007</dc:date>
    <dc:format>image/svg+xml</dc:format>
    <dc:creator>
     <cc:Agent>
      <dc:title>Matplotlib v3.9.4, https://matplotlib.org/</dc:title>
     </cc:Agent>
    </dc:creator>
   </cc:Work>
  </rdf:RDF>
 </metadata>
 <defs>
  <style type="text/css">*{stroke-linejoin: round; stroke-linecap: butt}</style>
 </defs>
 <g id="figure_1">
  <g id="patch_1">
   <path d="M 0 432 
L 864 432 
L 864 0 
L 0 0 
z
" style="fill: #ffffff"/>
  </g>
  <g id="axes_1">
   <g id="patch_2">
    <path d="M 45.74 390.04 
L 853.2 390.04 
L 853.2 25.44 
L 45.74 25.44 
z
" style="fill: #ffffff"/>
   </g>
   <g id="matplotlib.axis_1">
    <g id="xtick_1">
     <g id="line2d_1">
      <defs>
       <path id="m06f8dccffd" d="M 0 0 
L 0 3.5 
" style="stroke: #000000; stroke-width: 0.8"/>
      </defs>
      <g>
       <use xlink:href="#m06f8dccffd" x="82.442727" y="390.04" style="stroke: #000000; stroke-width: 0.8"/>
      </g>
     </g>
     <g id="text_1">
      <text style="font: 10px 'Helvetica', 'Arial'; text-anchor: middle" x="82.442727" y="404.213437" transform="rotate(-0 82.442727 404.213437)">LM</text>
     </g>
    </g>
    <g id="xtick_2">
     <g id="line2d_2">
      <g>
       <use xlink:href="#m06f8dccffd" x="265.956364" y="390.04" style="stroke: #000000; stroke-width: 0.8"/>
      </g>
     </g>
     <g id="text_2">
      <text style="font: 10px 'Helvetica', 'Arial'; text-anchor: middle" x="265.956364" y="404.213437" transform="rotate(-0 265.956364 404.213437)">AL</text>
     </g>
    </g>
    <g id="xtick_3">
     <g id="line2d_3">
      <g>
       <use xlink:href="#m06f8dccffd" x="449.47" y="390.04" style="stroke: #000000; stroke-width: 0.8"/>
      </g>
     </g>
     <g id="text_3">
      <text style="font: 10px 'Helvetica', 'Arial'; text-anchor: middle" x="449.47" y="404.213437" transform="rotate(-0 449.47 404.213437)">AM</text>
     </g>
    </g>
    <g id="xtick_4">
     <g id="line2d_4">
      <g>
       <use xlink:href="#m06f8dccffd" x="632.983636" y="390.04" style="stroke: #000000; stroke-width: 0.8"/>
      </g>
     </g>
     <g id="text_4">
      <text style="font: 10px 'Helvetica', 'Arial'; text-anchor: middle" x="632.983636" y="404.213437" transform="rotate(-0 632.983636 404.213437)">PM</text>
     </g>
    </g>
    <g id="xtick_5">
     <g id="line2d_5">
      <g>
       <use xlink:href="#m06f8dccffd" x="816.497273" y="390.04" style="stroke: #000000; stroke-width: 0.8"/>
      </g>
     </g>
     <g id="text_5">
      <text style="font: 10px 'Helvetica', 'Arial'; text-anchor: middle" x="816.497273" y="404.213437" transform="rotate(-0 816.497273 404.213437)">RSP</text>
     </g>
    </g>
    <g id="text_6">
     <text style="font: 10px 'Helvetica', 'Arial'; text-anchor: middle" x="449.47" y="417.47125" transform="rotate(-0 449.47 417.47125)">Region</text>
    </g>
   </g>
   <g id="matplotlib.axis_2">
    <g id="ytick_1">
     <g id="line2d_6">
      <defs>
       <path id="m983a3a8144" d="M 0 0 
L -3.5 0 
" style="stroke: #000000; stroke-width: 0.8"/>
      </defs>
      <g>
       <use xlink:href="#m983a3a8144" x="45.74" y="324.161277" style="stroke: #000000; stroke-width: 0.8"/>
      </g>
     </g>
     <g id="text_7">
      <text style="font: 10px 'Helvetica', 'Arial'; text-anchor: end" x="38.74" y="327.747996" transform="rotate(-0 38.74 327.747996)">0.2</text>
     </g>
    </g>
    <g id="ytick_2">
     <g id="line2d_7">
      <g>
       <use xlink:href="#m983a3a8144" x="45.74" y="253.62414" style="stroke: #000000; stroke-width: 0.8"/>
      </g>
     </g>
     <g id="text_8">
      <text style="font: 10px 'Helvetica', 'Arial'; text-anchor: end" x="38.74" y="257.210859" transform="rotate(-0 38.74 257.210859)">0.4</text>
     </g>
    </g>
    <g id="ytick_3">
     <g id="line2d_8">
      <g>
       <use xlink:href="#m983a3a8144" x="45.74" y="183.087002" style="stroke: #000000; stroke-width: 0.8"/>
      </g>
     </g>
     <g id="text_9">
      <text style="font: 10px 'Helvetica', 'Arial'; text-anchor: end" x="38.74" y="186.673721" transform="rotate(-0 38.74 186.673721)">0.6</text>
     </g>
    </g>
    <g id="ytick_4">
     <g id="line2d_9">
      <g>
       <use xlink:href="#m983a3a8144" x="45.74" y="112.549865" style="stroke: #000000; stroke-width: 0.8"/>
      </g>
     </g>
     <g id="text_10">
      <text style="font: 10px 'Helvetica', 'Arial'; text-anchor: end" x="38.74" y="116.136584" transform="rotate(-0 38.74 116.136584)">0.8</text>
     </g>
    </g>
    <g id="ytick_5">
     <g id="line2d_10">
      <g>
       <use xlink:href="#m983a3a8144" x="45.74" y="42.012727" style="stroke: #000000; stroke-width: 0.8"/>
      </g>
     </g>
     <g id="text_11">
      <text style="font: 10px 'Helvetica', 'Arial'; text-anchor: end" x="38.74" y="45.599446" transform="rotate(-0 38.74 45.599446)">1.0</text>
     </g>
    </g>
    <g id="text_12">
     <text style="font: 10px 'Helvetica', 'Arial'; text-anchor: middle" x="18.755625" y="207.74" transform="rotate(-90 18.755625 207.74)">Normalized Value (0-1)</text>
    </g>
   </g>
   <g id="line2d_11">
    <path d="M 82.442727 186.918037 
L 265.956364 373.467273 
L 449.47 311.370323 
L 632.983636 305.106784 
L 816.497273 42.012727 
" clip-path="url(#p5615a39baf)" style="fill: none; stroke: #1f77b4; stroke-opacity: 0.8; stroke-width: 2; stroke-linecap: square"/>
    <defs>
     <path id="m38f8c0bfb2" d="M 0 4 
C 1.060812 4 2.078319 3.578535 2.828427 2.828427 
C 3.578535 2.078319 4 1.060812 4 0 
C 4 -1.060812 3.578535 -2.078319 2.828427 -2.828427 
C 2.078319 -3.578535 1.060812 -4 0 -4 
C -1.060812 -4 -2.078319 -3.578535 -2.828427 -2.828427 
C -3.578535 -2.078319 -4 -1.060812 -4 0 
C -4 1.060812 -3.578535 2.078319 -2.828427 2.828427 
C -2.078319 3.578535 -1.060812 4 0 4 
z
" style="stroke: #1f77b4; stroke-opacity: 0.8"/>
    </defs>
    <g clip-path="url(#p5615a39baf)">
     <use xlink:href="#m38f8c0bfb2" x="82.442727" y="186.918037" style="fill: #1f77b4; fill-opacity: 0.8; stroke: #1f77b4; stroke-opacity: 0.8"/>
     <use xlink:href="#m38f8c0bfb2" x="265.956364" y="373.467273" style="fill: #1f77b4; fill-opacity: 0.8; stroke: #1f77b4; stroke-opacity: 0.8"/>
     <use xlink:href="#m38f8c0bfb2" x="449.47" y="311.370323" style="fill: #1f77b4; fill-opacity: 0.8; stroke: #1f77b4; stroke-opacity: 0.8"/>
     <use xlink:href="#m38f8c0bfb2" x="632.983636" y="305.106784" style="fill: #1f77b4; fill-opacity: 0.8; stroke: #1f77b4; stroke-opacity: 0.8"/>
     <use xlink:href="#m38f8c0bfb2" x="816.497273" y="42.012727" style="fill: #1f77b4; fill-opacity: 0.8; stroke: #1f77b4; stroke-opacity: 0.8"/>
    </g>
   </g>
   <g id="line2d_12">
    <path d="M 82.442727 196.804445 
L 265.956364 227.044134 
L 449.47 227.807017 
L 632.983636 172.961656 
L 816.497273 236.827263 
" clip-path="url(#p5615a39baf)" style="fill: none; stroke: #2ca02c; stroke-opacity: 0.8; stroke-width: 2; stroke-linecap: square"/>
    <defs>
     <path id="md2b983b6b1" d="M 0 4 
C 1.060812 4 2.078319 3.578535 2.828427 2.828427 
C 3.578535 2.078319 4 1.060812 4 0 
C 4 -1.060812 3.578535 -2.078319 2.828427 -2.828427 
C 2.078319 -3.578535 1.060812 -4 0 -4 
C -1.060812 -4 -2.078319 -3.578535 -2.828427 -2.828427 
C -3.578535 -2.078319 -4 -1.060812 -4 0 
C -4 1.060812 -3.578535 2.078319 -2.828427 2.828427 
C -2.078319 3.578535 -1.060812 4 0 4 
z
" style="stroke: #2ca02c; stroke-opacity: 0.8"/>
    </defs>
    <g clip-path="url(#p5615a39baf)">
     <use xlink:href="#md2b983b6b1" x="82.442727" y="196.804445" style="fill: #2ca02c; fill-opacity: 0.8; stroke: #2ca02c; stroke-opacity: 0.8"/>
     <use xlink:href="#md2b983b6b1" x="265.956364" y="227.044134" style="fill: #2ca02c; fill-opacity: 0.8; stroke: #2ca02c; stroke-opacity: 0.8"/>
     <use xlink:href="#md2b983b6b1" x="449.47" y="227.807017" style="fill: #2ca02c; fill-opacity: 0.8; stroke: #2ca02c; stroke-opacity: 0.8"/>
     <use xlink:href="#md2b983b6b1" x="632.983636" y="172.961656" style="fill: #2ca02c; fill-opacity: 0.8; stroke: #2ca02c; stroke-opacity: 0.8"/>
     <use xlink:href="#md2b983b6b1" x="816.497273" y="236.827263" style="fill: #2ca02c; fill-opacity: 0.8; stroke: #2ca02c; stroke-opacity: 0.8"/>
    </g>
   </g>
   <g id="line2d_13">
    <path d="M 82.442727 195.815804 
L 265.956364 241.686447 
L 449.47 236.163348 
L 632.983636 186.176169 
L 816.497273 217.345809 
" clip-path="url(#p5615a39baf)" style="fill: none; stroke: #000000; stroke-opacity: 0.9; stroke-width: 3; stroke-linecap: square"/>
    <defs>
     <path id="mfc5cc1391f" d="M 0 5 
C 1.326016 5 2.597899 4.473168 3.535534 3.535534 
C 4.473168 2.597899 5 1.326016 5 0 
C 5 -1.326016 4.473168 -2.597899 3.535534 -3.535534 
C 2.597899 -4.473168 1.326016 -5 0 -5 
C -1.326016 -5 -2.597899 -4.473168 -3.535534 -3.535534 
C -4.473168 -2.597899 -5 -1.326016 -5 0 
C -5 1.326016 -4.473168 2.597899 -3.535534 3.535534 
C -2.597899 4.473168 -1.326016 5 0 5 
z
" style="stroke: #000000; stroke-opacity: 0.9"/>
    </defs>
    <g clip-path="url(#p5615a39baf)">
     <use xlink:href="#mfc5cc1391f" x="82.442727" y="195.815804" style="fill-opacity: 0.9; stroke: #000000; stroke-opacity: 0.9"/>
     <use xlink:href="#mfc5cc1391f" x="265.956364" y="241.686447" style="fill-opacity: 0.9; stroke: #000000; stroke-opacity: 0.9"/>
     <use xlink:href="#mfc5cc1391f" x="449.47" y="236.163348" style="fill-opacity: 0.9; stroke: #000000; stroke-opacity: 0.9"/>
     <use xlink:href="#mfc5cc1391f" x="632.983636" y="186.176169" style="fill-opacity: 0.9; stroke: #000000; stroke-opacity: 0.9"/>
     <use xlink:href="#mfc5cc1391f" x="816.497273" y="217.345809" style="fill-opacity: 0.9; stroke: #000000; stroke-opacity: 0.9"/>
    </g>
   </g>
   <g id="patch_3">
    <path d="M 45.74 390.04 
L 45.74 25.44 
" style="fill: none; stroke: #000000; stroke-width: 0.8; stroke-linejoin: miter; stroke-linecap: square"/>
   </g>
   <g id="patch_4">
    <path d="M 853.2 390.04 
L 853.2 25.44 
" style="fill: none; stroke: #000000; stroke-width: 0.8; stroke-linejoin: miter; stroke-linecap: square"/>
   </g>
   <g id="patch_5">
    <path d="M 45.74 390.04 
L 853.2 390.04 
" style="fill: none; stroke: #000000; stroke-width: 0.8; stroke-linejoin: miter; stroke-linecap: square"/>
   </g>
   <g id="patch_6">
    <path d="M 45.74 25.44 
L 853.2 25.44 
" style="fill: none; stroke: #000000; stroke-width: 0.8; stroke-linejoin: miter; stroke-linecap: square"/>
   </g>
   <g id="text_13">
    <text style="font: 12px 'Helvetica', 'Arial'; text-anchor: middle" x="449.47" y="19.44" transform="rotate(-0 449.47 19.44)">Normalized Regional Data: rsp_pm_am_al_lm (All Ages Comparison)</text>
   </g>
   <g id="legend_1">
    <g id="patch_7">
     <path d="M 52.74 90.794688 
L 144.204063 90.794688 
Q 146.204063 90.794688 146.204063 88.794688 
L 146.204063 32.44 
Q 146.204063 30.44 144.204063 30.44 
L 52.74 30.44 
Q 50.74 30.44 50.74 32.44 
L 50.74 88.794688 
Q 50.74 90.794688 52.74 90.794688 
z
" style="fill: #ffffff; opacity: 0.8; stroke: #cccccc; stroke-linejoin: miter"/>
    </g>
    <g id="text_14">
     <text style="font: 10px 'Helvetica', 'Arial'; text-anchor: start" x="74.291563" y="41.80875" transform="rotate(-0 74.291563 41.80875)">Age Group</text>
    </g>
    <g id="line2d_14">
     <path d="M 54.74 52.694688 
L 64.74 52.694688 
L 74.74 52.694688 
" style="fill: none; stroke: #1f77b4; stroke-opacity: 0.8; stroke-width: 2; stroke-linecap: square"/>
     <g>
      <use xlink:href="#m38f8c0bfb2" x="64.74" y="52.694688" style="fill: #1f77b4; fill-opacity: 0.8; stroke: #1f77b4; stroke-opacity: 0.8"/>
     </g>
    </g>
    <g id="text_15">
     <text style="font: 10px 'Helvetica', 'Arial'; text-anchor: start" x="82.74" y="56.194688" transform="rotate(-0 82.74 56.194688)">P12 Mean</text>
    </g>
    <g id="line2d_15">
     <path d="M 54.74 66.9525 
L 64.74 66.9525 
L 74.74 66.9525 
" style="fill: none; stroke: #2ca02c; stroke-opacity: 0.8; stroke-width: 2; stroke-linecap: square"/>
     <g>
      <use xlink:href="#md2b983b6b1" x="64.74" y="66.9525" style="fill: #2ca02c; fill-opacity: 0.8; stroke: #2ca02c; stroke-opacity: 0.8"/>
     </g>
    </g>
    <g id="text_16">
     <text style="font: 10px 'Helvetica', 'Arial'; text-anchor: start" x="82.74" y="70.4525" transform="rotate(-0 82.74 70.4525)">P60 Mean</text>
    </g>
    <g id="line2d_16">
     <path d="M 54.74 81.210313 
L 64.74 81.210313 
L 74.74 81.210313 
" style="fill: none; stroke: #000000; stroke-opacity: 0.9; stroke-width: 3; stroke-linecap: square"/>
     <g>
      <use xlink:href="#mfc5cc1391f" x="64.74" y="81.210313" style="fill-opacity: 0.9; stroke: #000000; stroke-opacity: 0.9"/>
     </g>
    </g>
    <g id="text_17">
     <text style="font: 10px 'Helvetica', 'Arial'; text-anchor: start" x="82.74" y="84.710313" transform="rotate(-0 82.74 84.710313)">Overall Mean</text>
    </g>
   </g>
  </g>
 </g>
 <defs>
  <clipPath id="p5615a39baf">
   <rect x="45.74" y="25.44" width="807.46" height="364.6"/>
  </clipPath>
 </defs>
</svg>
